<svg xmlns="http://www.w3.org/2000/svg" xmlns:xlink="http://www.w3.org/1999/xlink" width="1080" zoomAndPan="magnify" viewBox="0 0 810 809.999993" height="1080" preserveAspectRatio="xMidYMid meet" version="1.0"><defs><clipPath id="ef13c94f53"><path d="M 42.222656 778.03125 L 767.761719 778.03125 L 767.761719 795.535156 L 42.222656 795.535156 Z M 42.222656 778.03125 " clip-rule="nonzero"/></clipPath></defs><path fill="#a3654a" d="M 394.9375 191.636719 C 394.9375 191.636719 369.675781 178.730469 367.015625 141.40625 C 364.359375 104.082031 380.253906 78.109375 403.464844 69.359375 C 426.675781 60.613281 419.859375 71.742188 428.113281 66.59375 C 436.363281 61.445312 444.621094 56.289062 458.746094 62.382812 C 472.875 68.472656 495.96875 72.402344 505.550781 85.914062 C 515.136719 99.429688 506.164062 101.589844 523.890625 122.632812 C 541.617188 143.675781 540.0625 150.375 524.160156 176.347656 C 508.265625 202.316406 493.917969 221.59375 493.917969 221.59375 L 457.75 176.515625 L 394.9375 191.636719 " fill-opacity="1" fill-rule="nonzero"/><path fill="#f6b592" d="M 530.703125 307.121094 L 471.609375 397.433594 L 413.753906 307.1875 C 413.753906 307.1875 427.234375 301.570312 427.488281 268.554688 C 427.515625 264.882812 427.40625 260.90625 427.066406 256.535156 C 426.527344 249.613281 425.492188 241.792969 423.816406 232.878906 C 423.707031 232.375 423.597656 231.84375 423.488281 231.277344 C 423.378906 230.664062 423.269531 230.046875 423.132812 229.425781 L 465.585938 202.78125 L 489.128906 187.988281 C 489.128906 187.988281 501.066406 282.445312 511.265625 286.515625 C 530.777344 296.230469 530.703125 307.121094 530.703125 307.121094 " fill-opacity="1" fill-rule="nonzero"/><path fill="#e57c5c" d="M 466.253906 248.625 C 455.964844 258.332031 444.738281 265.308594 427.066406 256.535156 C 426.527344 249.613281 425.492188 241.792969 423.816406 232.878906 C 423.707031 232.375 423.597656 231.84375 423.488281 231.277344 C 423.378906 230.691406 423.269531 230.074219 423.132812 229.425781 L 465.585938 202.78125 L 474.285156 201.070312 C 474.285156 201.070312 487.652344 228.472656 466.253906 248.625 " fill-opacity="1" fill-rule="nonzero"/><path fill="#f6b592" d="M 388.714844 126.386719 C 388.558594 137.222656 384.300781 173.757812 394.316406 202.214844 C 404.335938 230.671875 422.808594 241.664062 429.492188 243.144531 C 436.175781 244.621094 458.519531 245.417969 475.238281 222.867188 C 491.964844 200.320312 496.019531 177.738281 496.019531 177.738281 C 496.019531 177.738281 488.292969 145.640625 479.496094 135.40625 C 470.703125 125.175781 448.714844 99.59375 439.75 101.757812 C 430.773438 103.917969 388.898438 113.992188 388.714844 126.386719 " fill-opacity="1" fill-rule="nonzero"/><path fill="#a3654a" d="M 403.023438 120.085938 C 415.652344 118.886719 421.078125 103.085938 429.941406 113.609375 C 438.804688 124.125 443.238281 129.390625 455.917969 129.5 C 468.609375 129.609375 482.148438 159.570312 494.65625 158.929688 C 507.15625 158.296875 459.132812 103.421875 459.132812 103.421875 L 443.566406 91.34375 L 410.667969 99.265625 L 391.167969 110.285156 L 382.695312 140.800781 C 382.695312 140.800781 384.582031 178.648438 388.367188 173.273438 C 389.355469 170.542969 381.363281 122.136719 403.023438 120.085938 " fill-opacity="1" fill-rule="nonzero"/><path fill="#a3654a" d="M 441.507812 71.191406 C 440.839844 71.148438 439.054688 65.324219 438.84375 64.746094 C 437 59.78125 435.484375 54.667969 434.574219 49.441406 C 432.902344 39.878906 433.394531 28.394531 442.109375 22.292969 C 450.570312 16.367188 462.492188 14.078125 472.179688 18.042969 C 476.261719 19.710938 479.742188 22.074219 484.164062 22.761719 C 488.742188 23.472656 493.796875 22.84375 497.816406 25.605469 C 505.890625 31.140625 503.902344 43.25 501.71875 51.300781 C 498.335938 63.765625 488.835938 79.390625 474.566406 80.242188 C 471.539062 80.425781 468.507812 79.96875 465.613281 79.105469 C 438.464844 70.980469 441.5 71.191406 441.507812 71.191406 " fill-opacity="1" fill-rule="nonzero"/><path fill="#8e4d36" d="M 470.492188 84.867188 C 471.894531 84.90625 473.296875 85.105469 474.6875 85.417969 C 476.078125 85.726562 477.441406 86.15625 478.789062 86.699219 C 481.460938 87.800781 484.089844 89.417969 486.132812 91.929688 C 487.132812 93.191406 487.957031 94.6875 488.433594 96.316406 C 488.917969 97.945312 489.042969 99.789062 488.722656 101.519531 C 488.429688 103.265625 487.699219 104.808594 487.039062 106.109375 C 486.703125 106.75 486.363281 107.335938 486.160156 107.792969 C 486.125 107.886719 486.070312 107.996094 486.042969 108.078125 C 486.03125 108.140625 485.984375 108.234375 485.996094 108.242188 C 485.960938 108.339844 486.03125 108.1875 485.976562 107.996094 C 485.921875 107.773438 485.824219 107.617188 485.777344 107.597656 C 485.785156 107.589844 485.804688 107.609375 485.820312 107.636719 C 485.878906 107.664062 485.929688 107.703125 485.984375 107.753906 C 486.296875 107.941406 486.785156 108.160156 487.324219 108.367188 C 487.582031 108.46875 487.882812 108.5625 488.164062 108.664062 L 489.054688 108.945312 C 489.675781 109.121094 490.273438 109.269531 490.988281 109.480469 C 493.734375 110.257812 496.46875 111.226562 499.0625 112.609375 C 501.636719 113.992188 504.132812 115.78125 505.992188 118.152344 C 507.859375 120.507812 508.902344 123.429688 508.933594 126.230469 C 508.308594 124.972656 507.59375 123.804688 506.78125 122.769531 L 506.476562 122.390625 L 506.148438 122.027344 C 505.925781 121.789062 505.734375 121.539062 505.480469 121.328125 L 504.78125 120.671875 L 504.03125 120.082031 C 502.011719 118.554688 499.695312 117.492188 497.277344 116.632812 C 494.851562 115.796875 492.3125 115.164062 489.730469 114.644531 C 489.117188 114.523438 488.382812 114.359375 487.664062 114.195312 L 486.582031 113.917969 C 486.207031 113.800781 485.847656 113.707031 485.464844 113.574219 C 484.707031 113.308594 483.925781 113.003906 483.058594 112.492188 C 482.828125 112.34375 482.605469 112.1875 482.378906 112.023438 C 482.132812 111.824219 481.894531 111.613281 481.664062 111.367188 C 481.535156 111.226562 481.417969 111.078125 481.300781 110.917969 C 481.242188 110.84375 481.1875 110.777344 481.132812 110.6875 L 480.96875 110.410156 C 480.875 110.21875 480.769531 110.027344 480.6875 109.824219 C 480.613281 109.613281 480.554688 109.394531 480.503906 109.175781 C 480.320312 108.3125 480.410156 107.460938 480.582031 106.894531 C 480.65625 106.558594 480.742188 106.34375 480.839844 106.082031 C 480.925781 105.839844 481.03125 105.640625 481.125 105.421875 C 481.507812 104.640625 481.859375 104.035156 482.1875 103.476562 C 482.828125 102.363281 483.285156 101.398438 483.53125 100.445312 C 483.660156 99.96875 483.742188 99.492188 483.75 99 C 483.769531 98.507812 483.726562 98.003906 483.652344 97.488281 C 483.460938 96.460938 483.09375 95.4375 482.535156 94.445312 C 481.96875 93.457031 481.214844 92.507812 480.355469 91.609375 C 479.488281 90.71875 478.503906 89.878906 477.453125 89.089844 C 475.339844 87.515625 472.984375 86.132812 470.492188 84.867188 " fill-opacity="1" fill-rule="nonzero"/><path fill="#8e4d36" d="M 413.847656 98.679688 C 414.140625 97.050781 414.660156 95.535156 415.230469 94.046875 C 415.8125 92.5625 416.492188 91.140625 417.234375 89.742188 C 418.734375 86.972656 420.511719 84.355469 422.582031 81.945312 C 424.652344 79.539062 427.011719 77.308594 429.8125 75.535156 C 431.214844 74.664062 432.734375 73.902344 434.394531 73.429688 L 435.015625 73.269531 C 435.226562 73.226562 435.445312 73.1875 435.65625 73.152344 C 435.875 73.125 436.078125 73.089844 436.296875 73.070312 C 436.515625 73.050781 436.738281 73.050781 436.949219 73.042969 C 437.808594 73.015625 438.695312 73.199219 439.445312 73.539062 C 437.863281 74.066406 436.738281 74.9375 435.648438 75.882812 C 434.578125 76.828125 433.585938 77.871094 432.609375 78.941406 C 430.667969 81.101562 428.777344 83.347656 426.828125 85.597656 C 424.890625 87.855469 422.894531 90.113281 420.789062 92.320312 C 418.660156 94.519531 416.464844 96.699219 413.847656 98.679688 " fill-opacity="1" fill-rule="nonzero"/><path fill="#5faad3" d="M 507.867188 282.179688 C 507.867188 282.179688 603.332031 287.59375 649.980469 361.738281 C 687.453125 421.292969 695.210938 460.558594 696.8125 473.707031 C 697.125 476.292969 695.121094 478.570312 692.511719 478.546875 L 605.9375 477.957031 L 598.140625 556.636719 L 334.539062 531.804688 C 334.539062 531.804688 343.316406 427.015625 356.925781 330.027344 C 406.203125 280.550781 425.703125 286.5625 425.703125 286.5625 C 425.703125 286.5625 442.164062 371.585938 467.773438 369.054688 C 479.414062 367.902344 493.6875 295.234375 507.867188 282.179688 " fill-opacity="1" fill-rule="nonzero"/><path stroke-linecap="round" transform="matrix(0.174408, 0, 0, -0.174364, 42.222508, 795.538684)" fill="none" stroke-linejoin="round" d="M 836.64632 2475.98118 C 836.64632 2475.98118 890.421872 2478.333478 897.073825 2454.452059 C 903.703381 2430.593043 836.64632 2376.647025 824.462271 2382.158122 C 812.233428 2387.714024 836.64632 2475.98118 836.64632 2475.98118 Z M 836.64632 2475.98118 " stroke="#4c4c4c" stroke-width="16.33" stroke-opacity="1" stroke-miterlimit="10"/><path fill="#f6b592" d="M 183.050781 245.355469 C 183.050781 245.355469 131 357.1875 181.769531 432.949219 C 232.53125 508.714844 380.609375 446.078125 380.609375 446.078125 L 372.390625 321.730469 C 372.390625 321.730469 288.875 389.683594 248.488281 378.410156 C 208.09375 367.140625 222.53125 255.996094 222.53125 255.996094 L 183.050781 245.355469 " fill-opacity="1" fill-rule="nonzero"/><path fill="#5faad3" d="M 387.890625 303.515625 L 293.0625 363.441406 C 291.871094 364.191406 291.195312 365.558594 291.332031 366.960938 L 302.855469 490.378906 C 303.160156 493.65625 306.691406 495.578125 309.613281 494.0625 L 412.847656 440.46875 L 387.890625 303.515625 " fill-opacity="1" fill-rule="nonzero"/><path fill="#4995aa" d="M 229.011719 303.539062 C 226.699219 303.515625 224.582031 301.992188 223.914062 299.660156 C 222.511719 294.738281 190.175781 178.621094 243.699219 138.679688 C 246.0625 136.917969 249.40625 137.402344 251.171875 139.765625 C 252.9375 142.128906 252.445312 145.472656 250.089844 147.238281 C 202.441406 182.789062 233.859375 295.601562 234.179688 296.738281 C 234.984375 299.574219 233.34375 302.523438 230.507812 303.332031 C 230.011719 303.46875 229.5 303.539062 229.011719 303.539062 " fill-opacity="1" fill-rule="nonzero"/><path fill="#4995aa" d="M 246.445312 134.492188 C 236.863281 153.058594 238.753906 173.089844 250.667969 179.242188 C 262.582031 185.386719 280.011719 175.320312 289.597656 156.75 C 299.175781 138.175781 297.289062 118.144531 285.367188 112.003906 C 273.449219 105.851562 256.023438 115.925781 246.445312 134.492188 " fill-opacity="1" fill-rule="nonzero"/><path fill="#ffd652" d="M 114.335938 634.148438 C 114.335938 634.148438 156.808594 770.875 188.757812 781.960938 C 220.710938 793.042969 600.152344 795.570312 633.644531 785.769531 C 667.128906 775.96875 713.136719 636.4375 713.136719 636.4375 C 713.136719 636.4375 470.394531 679 114.335938 634.148438 " fill-opacity="1" fill-rule="nonzero"/><path fill="#4c4c4c" d="M 445.949219 166.546875 C 446.421875 169.15625 445.460938 171.511719 443.824219 171.796875 C 442.175781 172.089844 440.472656 170.210938 440.011719 167.601562 C 439.546875 164.992188 440.5 162.644531 442.140625 162.351562 C 443.785156 162.058594 445.496094 163.9375 445.949219 166.546875 " fill-opacity="1" fill-rule="nonzero"/><path fill="#4c4c4c" d="M 410.328125 173.097656 C 410.789062 175.707031 409.828125 178.054688 408.195312 178.347656 C 406.550781 178.640625 404.84375 176.761719 404.378906 174.152344 C 403.914062 171.546875 404.871094 169.1875 406.511719 168.894531 C 408.152344 168.609375 409.863281 170.488281 410.328125 173.097656 " fill-opacity="1" fill-rule="nonzero"/><path fill="#e57c5c" d="M 419.167969 169.898438 C 420.171875 173.34375 420.816406 176.824219 421.363281 180.3125 C 421.886719 183.796875 422.277344 187.292969 422.546875 190.800781 L 422.734375 193.4375 L 422.863281 196.070312 C 422.890625 196.949219 422.929688 197.828125 422.945312 198.707031 L 422.949219 199.042969 L 422.957031 199.285156 C 422.957031 199.335938 422.957031 199.382812 422.964844 199.417969 C 422.972656 199.457031 422.972656 199.496094 422.984375 199.53125 C 423.011719 199.683594 423.09375 199.84375 423.277344 200.027344 C 423.644531 200.390625 424.339844 200.722656 425.089844 200.957031 C 425.847656 201.195312 426.671875 201.363281 427.515625 201.5 C 428.359375 201.648438 429.226562 201.753906 430.097656 201.863281 C 430.976562 201.964844 431.863281 202.050781 432.753906 202.179688 C 431.894531 202.445312 431.023438 202.664062 430.144531 202.84375 C 429.257812 203.03125 428.367188 203.164062 427.453125 203.242188 C 426.539062 203.320312 425.609375 203.347656 424.632812 203.242188 C 424.148438 203.195312 423.652344 203.101562 423.140625 202.957031 C 422.628906 202.808594 422.097656 202.597656 421.582031 202.242188 C 421.070312 201.894531 420.558594 201.363281 420.246094 200.703125 C 420.15625 200.539062 420.101562 200.371094 420.046875 200.199219 C 419.988281 200.027344 419.960938 199.851562 419.933594 199.683594 L 419.890625 199.4375 L 419.871094 199.273438 L 419.824219 198.945312 C 419.699219 198.074219 419.613281 197.203125 419.503906 196.324219 L 419.238281 193.703125 L 419.011719 191.074219 C 418.746094 187.566406 418.597656 184.050781 418.589844 180.523438 C 418.597656 176.992188 418.707031 173.460938 419.167969 169.898438 " fill-opacity="1" fill-rule="nonzero"/><path fill="#a3654a" d="M 435.480469 148.625 C 435.609375 148.121094 435.804688 147.664062 436.039062 147.242188 C 436.261719 146.8125 436.535156 146.425781 436.820312 146.050781 C 437.40625 145.308594 438.089844 144.660156 438.84375 144.109375 C 440.355469 143.011719 442.164062 142.320312 444.0625 142.074219 C 445.011719 141.949219 445.984375 141.957031 446.9375 142.074219 C 447.890625 142.210938 448.832031 142.453125 449.710938 142.84375 C 451.457031 143.632812 452.996094 144.859375 453.886719 146.691406 C 451.878906 147.019531 450.324219 147.121094 448.867188 147.304688 L 444.777344 147.792969 C 443.445312 147.957031 442.082031 148.136719 440.582031 148.292969 C 439.0625 148.433594 437.488281 148.597656 435.480469 148.625 " fill-opacity="1" fill-rule="nonzero"/><path fill="#a3654a" d="M 410.933594 151.195312 C 409.105469 151.445312 407.695312 151.464844 406.394531 151.507812 C 405.113281 151.535156 404.023438 151.546875 403.085938 151.59375 C 402.136719 151.664062 401.355469 151.699219 400.3125 151.914062 C 399.253906 152.113281 398.035156 152.636719 396.304688 153.332031 C 396.085938 152.417969 396.121094 151.527344 396.351562 150.664062 C 396.570312 149.796875 397.019531 148.964844 397.640625 148.246094 C 398.878906 146.765625 400.910156 145.90625 402.792969 145.832031 C 404.679688 145.757812 406.421875 146.296875 407.824219 147.214844 C 408.527344 147.671875 409.148438 148.238281 409.6875 148.882812 C 410.210938 149.546875 410.671875 150.273438 410.933594 151.195312 " fill-opacity="1" fill-rule="nonzero"/><path fill="#e57c5c" d="M 433.375 217.050781 C 435.546875 216.464844 437.625 215.988281 439.640625 215.429688 C 441.652344 214.878906 443.605469 214.269531 445.425781 213.488281 C 447.257812 212.710938 448.933594 211.746094 450.414062 210.484375 C 451.140625 209.835938 451.808594 209.109375 452.429688 208.296875 C 453.0625 207.480469 453.574219 206.5625 454.140625 205.566406 C 454.261719 206.683594 454.179688 207.855469 453.859375 208.980469 C 453.535156 210.101562 452.996094 211.191406 452.300781 212.167969 C 450.863281 214.101562 448.839844 215.550781 446.691406 216.445312 C 444.546875 217.363281 442.273438 217.8125 440.023438 217.921875 C 438.890625 217.96875 437.773438 217.933594 436.65625 217.800781 C 435.546875 217.65625 434.445312 217.453125 433.375 217.050781 " fill-opacity="1" fill-rule="nonzero"/><path fill="#f6b592" d="M 486.222656 163.335938 C 489.660156 156.601562 501.957031 152.984375 507.878906 157.480469 C 510.761719 159.660156 512.65625 162.886719 514.179688 166.164062 C 517.109375 172.484375 517.347656 179.152344 513.644531 185.207031 C 511.367188 188.921875 495.582031 202.207031 484.449219 195.398438 C 473.316406 188.585938 486.222656 163.335938 486.222656 163.335938 " fill-opacity="1" fill-rule="nonzero"/><path fill="#e57c5c" d="M 493.476562 167.125 C 493.476562 167.125 504.765625 163.433594 507.015625 174.398438 " fill-opacity="1" fill-rule="nonzero"/><path fill="#f6b592" d="M 245.511719 223.023438 C 242.667969 218.417969 243.554688 215.898438 243.726562 211.300781 C 243.894531 206.703125 239.046875 203.898438 239.046875 203.898438 C 239.046875 203.898438 241.496094 200.125 239.058594 194.996094 C 236.613281 189.875 218.484375 188.648438 207.9375 196.984375 C 207.222656 197.558594 206.671875 198.382812 206.242188 199.394531 C 199.761719 208.746094 176.859375 243.421875 177.867188 264.90625 C 179.039062 289.910156 208.707031 293.015625 208.707031 293.015625 L 220.085938 265.164062 C 220.085938 265.164062 241.347656 250.847656 247.316406 246.9375 C 253.277344 243.027344 248.652344 242.019531 249.9375 236.90625 C 253.058594 229.433594 249.359375 225.6875 245.511719 223.023438 " fill-opacity="1" fill-rule="nonzero"/><path fill="#d89371" d="M 566.273438 656.632812 L 158.777344 650.683594 C 158.777344 650.683594 151.058594 521.75 130.769531 513.910156 C 121.496094 510.347656 111.140625 509.074219 101.460938 507.109375 C 89.066406 504.585938 76.511719 501.953125 64.753906 497.277344 C 57.542969 494.425781 47.824219 489.964844 45.136719 481.96875 C 44.859375 481.292969 44.695312 480.621094 44.558594 479.890625 C 43.886719 476.074219 44.605469 472.664062 46.734375 469.90625 C 47.296875 469.15625 48 468.460938 48.789062 467.792969 C 48.960938 467.652344 49.128906 467.515625 49.328125 467.378906 C 59.828125 459.660156 70.378906 452.121094 81.601562 445.472656 C 96.847656 436.421875 112.953125 428.546875 129.910156 423.175781 C 146.472656 417.9375 164.335938 414.980469 181.621094 417.957031 C 242.171875 428.308594 251.144531 504.796875 266.847656 522.097656 C 276.890625 533.144531 352.207031 533.378906 408.910156 532.613281 C 440.867188 532.164062 466.925781 531.417969 472.023438 532.097656 C 475.824219 532.59375 483.324219 533.765625 492.585938 535.851562 C 517.667969 541.421875 555.710938 553.667969 569.078125 577.507812 C 587.398438 610.199219 566.273438 656.632812 566.273438 656.632812 " fill-opacity="1" fill-rule="nonzero"/><path fill="#965b3e" d="M 241.449219 506.929688 C 241.363281 507.183594 241.246094 507.40625 241.164062 507.632812 C 241.101562 507.742188 241.046875 507.851562 240.992188 507.964844 C 239.460938 510.867188 237.007812 513.402344 233.90625 515.503906 C 233.738281 515.621094 233.574219 515.730469 233.402344 515.867188 C 232.164062 516.671875 230.816406 517.417969 229.410156 518.109375 C 229.269531 518.1875 229.097656 518.269531 228.933594 518.351562 C 212.351562 526.199219 186.171875 525.070312 181.695312 511.875 C 178.398438 502.109375 176.195312 491.898438 174.25 481.804688 C 171.953125 469.910156 169.992188 457.746094 170.015625 445.644531 C 170.042969 441.421875 170.105469 436.769531 171.589844 432.804688 C 173.984375 426.382812 181.613281 420.777344 188.507812 420.707031 C 209.546875 420.464844 230.972656 453.597656 239.167969 480.035156 C 239.386719 480.679688 239.578125 481.347656 239.765625 481.996094 C 241 486.257812 241.867188 490.296875 242.320312 493.976562 C 242.371094 494.417969 242.425781 494.867188 242.480469 495.289062 C 242.921875 500.023438 242.640625 504.027344 241.449219 506.929688 " fill-opacity="1" fill-rule="nonzero"/><path fill="#6b3f2c" d="M 86.035156 488.957031 C 88.324219 488.984375 90.527344 489.085938 92.699219 489.132812 C 94.871094 489.175781 97.011719 489.179688 99.089844 488.984375 C 101.167969 488.792969 103.183594 488.410156 104.976562 487.566406 C 105.875 487.152344 106.710938 486.597656 107.449219 485.878906 C 108.191406 485.164062 108.8125 484.277344 109.402344 483.289062 C 109.402344 484.433594 109.117188 485.605469 108.550781 486.6875 C 108 487.777344 107.128906 488.71875 106.125 489.445312 C 104.101562 490.902344 101.679688 491.566406 99.347656 491.769531 C 96.996094 491.988281 94.679688 491.769531 92.441406 491.3125 C 90.210938 490.820312 88.03125 490.101562 86.035156 488.957031 " fill-opacity="1" fill-rule="nonzero"/><path fill="#6b3f2c" d="M 129.078125 441.257812 C 130.613281 441.84375 130.9375 444.746094 129.792969 447.734375 C 128.65625 450.730469 126.492188 452.679688 124.949219 452.09375 C 123.410156 451.507812 123.089844 448.613281 124.234375 445.617188 C 125.375 442.625 127.539062 440.671875 129.078125 441.257812 " fill-opacity="1" fill-rule="nonzero"/><path fill="#6b3f2c" d="M 61.394531 473.746094 C 61.851562 477.085938 49.832031 479.875 45.136719 481.96875 C 44.867188 481.292969 44.703125 480.625 44.566406 479.890625 C 43.890625 476.082031 44.613281 472.671875 46.734375 469.910156 C 47.296875 469.15625 48.007812 468.46875 48.796875 467.792969 C 51.332031 469.074219 61.054688 471.054688 61.394531 473.746094 " fill-opacity="1" fill-rule="nonzero"/><path fill="#d89371" d="M 503.851562 585.625 C 503.851562 585.625 559.355469 558.789062 559.964844 519.429688 C 560.570312 480.074219 518.417969 432.804688 491.480469 430.394531 C 491.480469 430.394531 549.832031 485.53125 539.675781 520.273438 C 529.511719 555.015625 483.304688 559.429688 483.304688 559.429688 L 503.851562 585.625 " fill-opacity="1" fill-rule="nonzero"/><path fill="#965b3e" d="M 526.742188 562.824219 C 526.742188 562.824219 524.296875 575.6875 507.148438 572.519531 C 489.949219 569.320312 492.082031 584.9375 471.902344 590.734375 C 451.777344 596.484375 454.753906 587.476562 449.078125 576.96875 C 443.492188 566.433594 420.367188 581.117188 399.683594 582.988281 C 379.027344 584.863281 379.894531 560.28125 402.484375 541.671875 C 406.121094 538.675781 408.105469 535.632812 408.910156 532.613281 C 440.867188 532.164062 466.925781 531.417969 472.023438 532.097656 C 475.824219 532.59375 483.324219 533.765625 492.585938 535.851562 C 501.863281 538.9375 510.101562 542.355469 517.300781 546.074219 L 526.742188 562.824219 " fill-opacity="1" fill-rule="nonzero"/><path fill="#f6b592" d="M 688.363281 479.140625 C 688.363281 479.140625 702.820312 577.078125 584.855469 588.726562 C 466.894531 600.371094 450.386719 606.929688 437.054688 605.949219 C 423.714844 604.96875 425.539062 597.867188 434.464844 593.480469 C 434.464844 593.480469 398.355469 587.648438 405.304688 579.917969 C 407.71875 577.226562 409.742188 576.792969 416.273438 576.5 C 417.921875 576.234375 419.699219 576.957031 421.328125 576.582031 C 424.503906 575.84375 419.429688 574.300781 418.277344 573.980469 C 413.582031 572.679688 408.726562 572.308594 404.335938 570.199219 C 401.066406 568.625 394.113281 563.101562 400.332031 560.050781 C 404.351562 558.082031 409.34375 558.484375 413.664062 558.742188 C 418.554688 559.035156 423.453125 559.328125 428.351562 559.628906 C 431.882812 559.839844 428.835938 558.339844 427.535156 557.753906 C 422.800781 555.675781 418.039062 553.660156 413.496094 551.183594 C 409.816406 549.171875 405.925781 547.089844 403.308594 543.71875 C 402.472656 542.632812 401.769531 541.394531 401.566406 540.039062 C 401.300781 538.308594 401.890625 536.496094 403.015625 535.164062 C 405.640625 532.035156 409.371094 532.34375 412.964844 533.253906 C 418.726562 534.71875 424.402344 536.511719 430 538.527344 C 435.035156 540.339844 440.117188 543.070312 445.625 542.84375 C 448.472656 542.730469 451.058594 541.515625 453.292969 539.792969 C 454.828125 529.460938 443.683594 514.382812 452.804688 513.550781 C 461.933594 512.726562 470.980469 523.019531 475.566406 535.503906 C 480.152344 547.980469 604.769531 506.808594 603.367188 484.113281 C 601.964844 461.425781 688.363281 479.140625 688.363281 479.140625 " fill-opacity="1" fill-rule="nonzero"/><path fill="#5faad3" d="M 561.496094 294.757812 C 561.496094 294.757812 661.03125 310.527344 697.085938 474.085938 C 697.699219 476.867188 695.550781 479.503906 692.710938 479.480469 L 586.152344 478.753906 L 561.496094 294.757812 " fill-opacity="1" fill-rule="nonzero"/><path fill="#ffffff" d="M 168.765625 405.308594 C 167.90625 402.109375 164.265625 399.691406 159.886719 399.65625 C 158.386719 399.648438 157 399.941406 155.746094 400.433594 C 154.675781 397.140625 151.34375 395.058594 147.839844 395.691406 C 144.027344 396.386719 141.503906 400.042969 142.199219 403.859375 C 142.269531 404.234375 142.382812 404.59375 142.515625 404.941406 C 142.324219 404.933594 142.144531 404.898438 141.957031 404.898438 C 134.898438 404.851562 129.152344 408.75 129.121094 413.605469 C 129.085938 418.460938 134.78125 422.4375 141.839844 422.488281 C 145.765625 422.511719 149.238281 421.292969 151.59375 419.394531 C 154.742188 421.34375 159.484375 422.609375 164.804688 422.644531 C 174.324219 422.710938 182.070312 418.820312 182.101562 413.964844 C 182.128906 409.785156 176.429688 406.253906 168.765625 405.308594 " fill-opacity="1" fill-rule="nonzero"/><path fill="#ffffff" d="M 57.578125 418.890625 C 57.558594 422.4375 54.65625 425.300781 51.105469 425.277344 C 47.550781 425.25 44.695312 422.355469 44.714844 418.800781 C 44.742188 415.253906 47.640625 412.390625 51.195312 412.414062 C 54.746094 412.441406 57.605469 415.339844 57.578125 418.890625 " fill-opacity="1" fill-rule="nonzero"/><path fill="#ffffff" d="M 119.253906 584.707031 C 119.941406 582.507812 122.28125 581.28125 124.480469 581.96875 C 126.679688 582.65625 127.90625 584.992188 127.21875 587.191406 C 126.539062 589.390625 124.195312 590.617188 121.992188 589.929688 C 119.792969 589.25 118.566406 586.90625 119.253906 584.707031 " fill-opacity="1" fill-rule="nonzero"/><path fill="#ffffff" d="M 709.390625 599.902344 C 710.078125 597.703125 712.421875 596.476562 714.613281 597.164062 C 716.816406 597.84375 718.042969 600.1875 717.359375 602.386719 C 716.671875 604.589844 714.328125 605.8125 712.132812 605.125 C 709.933594 604.4375 708.707031 602.101562 709.390625 599.902344 " fill-opacity="1" fill-rule="nonzero"/><path fill="#ffffff" d="M 208.496094 556.445312 C 209.996094 557.960938 209.976562 560.398438 208.460938 561.894531 C 206.941406 563.386719 204.503906 563.375 203.011719 561.855469 C 201.519531 560.34375 201.535156 557.90625 203.046875 556.40625 C 204.566406 554.914062 207.003906 554.933594 208.496094 556.445312 " fill-opacity="1" fill-rule="nonzero"/><path fill="#ffffff" d="M 699.339844 559.347656 C 700.839844 560.859375 700.820312 563.300781 699.304688 564.796875 C 697.785156 566.289062 695.347656 566.277344 693.855469 564.757812 C 692.363281 563.246094 692.378906 560.804688 693.890625 559.308594 C 695.410156 557.816406 697.847656 557.835938 699.339844 559.347656 " fill-opacity="1" fill-rule="nonzero"/><path fill="#ffffff" d="M 301.382812 553.90625 C 301.363281 557.164062 298.699219 559.792969 295.441406 559.765625 C 292.179688 559.742188 289.554688 557.082031 289.574219 553.816406 C 289.597656 550.5625 292.261719 547.933594 295.515625 547.960938 C 298.78125 547.980469 301.410156 550.644531 301.382812 553.90625 " fill-opacity="1" fill-rule="nonzero"/><path fill="#ffffff" d="M 348.867188 587.492188 C 348.839844 591.550781 345.523438 594.820312 341.460938 594.792969 C 337.402344 594.765625 334.136719 591.449219 334.164062 587.390625 C 334.191406 583.332031 337.503906 580.0625 341.566406 580.089844 C 345.625 580.117188 348.894531 583.433594 348.867188 587.492188 " fill-opacity="1" fill-rule="nonzero"/><path fill="#ffffff" d="M 714.375 637.730469 C 713.675781 636.976562 713.339844 635.9375 713.605469 634.945312 C 714.007812 633.472656 714.238281 631.894531 714.253906 630.238281 C 714.308594 622.25 709.53125 615.738281 703.589844 615.695312 C 703.109375 615.695312 702.644531 615.804688 702.179688 615.878906 C 700.164062 597.730469 686.128906 583.601562 668.980469 583.488281 C 655.089844 583.390625 643.101562 592.5 637.839844 605.597656 C 637.125 607.367188 635.011719 608.0625 633.390625 607.046875 C 627.757812 603.5 621.140625 600.972656 614.417969 599.859375 C 595.867188 596.796875 576.949219 601.671875 558.90625 606.507812 L 554.589844 607.660156 C 553.648438 607.910156 552.640625 607.714844 551.898438 607.09375 C 550.222656 605.703125 548.089844 604.855469 545.746094 604.839844 C 541.5 604.804688 537.871094 607.46875 536.472656 611.230469 C 536.140625 612.132812 535.363281 612.808594 534.429688 613.0625 C 525.824219 615.363281 517.21875 617.664062 508.613281 619.96875 C 507.464844 620.273438 506.210938 619.90625 505.472656 618.964844 C 501.835938 614.285156 495.003906 611.105469 487.15625 611.050781 C 476.988281 610.984375 468.480469 616.167969 466.347656 623.15625 C 465.871094 624.695312 464.398438 625.660156 462.820312 625.347656 C 460.167969 624.824219 457.574219 624.066406 455.050781 623.011719 C 443.320312 618.113281 435.71875 608.035156 425.609375 600.890625 C 401.222656 583.65625 361.28125 587.703125 341.394531 608.511719 C 339.941406 610.03125 337.523438 609.675781 336.46875 607.863281 C 330.949219 598.417969 319.921875 591.464844 307.828125 590.167969 C 296.121094 588.910156 283.921875 593.015625 275.949219 600.550781 C 274.320312 602.089844 271.699219 601.375 270.96875 599.253906 C 267.925781 590.449219 259.835938 582.957031 249.753906 580.148438 C 239.011719 577.160156 226.597656 579.652344 218.230469 586.175781 C 216.726562 587.355469 214.484375 587.0625 213.558594 585.386719 C 205.328125 570.546875 181.988281 563.074219 165.015625 570.769531 C 153.726562 575.886719 146.28125 585.953125 135.148438 591.328125 C 131.273438 593.191406 127 594.480469 122.75 595.765625 C 121.898438 596.027344 120.992188 595.875 120.230469 595.414062 C 116.066406 592.867188 110.921875 591.339844 105.355469 591.304688 C 91.351562 591.210938 79.9375 600.523438 79.855469 612.101562 C 79.796875 620.730469 86.070312 628.175781 95.0625 631.449219 C 96.207031 631.867188 97.03125 632.855469 97.167969 634.058594 C 97.242188 634.769531 97.324219 635.460938 97.40625 636.164062 C 96.601562 635.980469 95.777344 635.851562 94.914062 635.84375 C 89.3125 635.804688 84.75 639.734375 84.714844 644.625 C 84.679688 649.515625 89.191406 653.503906 94.789062 653.539062 C 96.070312 653.554688 97.289062 653.347656 98.414062 652.972656 C 99.785156 652.519531 101.261719 653.199219 101.945312 654.472656 C 102.6875 655.863281 103.570312 657.195312 104.648438 658.441406 C 109.199219 663.722656 116.324219 666.792969 123.402344 669.144531 C 148.121094 677.351562 175.632812 678.992188 201.375 673.789062 L 187.109375 677.003906 C 186.164062 677.214844 185.332031 677.828125 184.972656 678.726562 C 181.476562 687.398438 195.859375 709.546875 215.785156 704.21875 C 218.28125 703.554688 220.9375 704.085938 222.84375 705.820312 C 241.347656 722.738281 252.078125 751.195312 269.722656 731.957031 C 278.390625 722.496094 288.160156 715.007812 298.417969 709.070312 C 301.300781 707.402344 304.871094 707.148438 307.828125 708.675781 C 311.28125 710.453125 315.683594 711.535156 320.484375 711.570312 C 326.3125 711.605469 331.550781 710.097656 335.25 707.660156 C 336.277344 706.984375 337.578125 707.019531 338.601562 707.699219 C 340.890625 709.234375 343.75 709.96875 346.816406 709.484375 C 351.640625 708.730469 355.59375 704.804688 356.363281 699.984375 C 356.605469 698.472656 356.550781 697.007812 356.253906 695.632812 C 355.566406 692.4375 357.617188 689.296875 360.859375 688.847656 C 366.957031 688.011719 372.78125 687.457031 378.191406 687.097656 C 381.363281 686.878906 384.027344 689.421875 384.007812 692.609375 L 384.007812 692.75 C 383.941406 702.21875 389.289062 709.933594 395.957031 709.984375 C 400.085938 710.011719 403.753906 707.082031 405.953125 702.59375 C 406.675781 701.121094 408.332031 700.40625 409.863281 700.984375 C 413.070312 702.199219 416.667969 702.886719 420.476562 702.914062 C 429.257812 702.972656 436.976562 699.492188 441.324219 694.222656 C 443.65625 691.386719 447.3125 689.964844 450.9375 690.53125 C 463.011719 692.417969 474.523438 694.816406 485.710938 697.421875 C 486.335938 697.574219 486.894531 697.898438 487.316406 698.375 C 489.976562 701.386719 492.542969 704.894531 494.859375 709.023438 C 502.011719 721.730469 510.558594 718.863281 521.035156 713.714844 C 527.5 710.542969 534.863281 709.675781 541.890625 711.269531 C 549.710938 713.046875 557.550781 714.65625 565.507812 715.976562 C 571.210938 716.921875 576.285156 719.757812 581.023438 723.074219 C 581.417969 723.351562 581.867188 723.589844 582.300781 723.835938 C 583.371094 728.753906 588.761719 732.535156 595.308594 732.582031 C 602.660156 732.628906 608.648438 727.972656 608.6875 722.167969 C 608.6875 721.746094 608.660156 721.332031 608.601562 720.929688 C 608.339844 719.125 608.976562 717.304688 610.425781 716.214844 C 610.445312 716.203125 610.464844 716.1875 610.480469 716.175781 C 612.121094 714.941406 614.113281 714.253906 616.167969 714.316406 C 630.644531 714.738281 641.839844 717.679688 659.042969 713.75 C 673.566406 710.433594 688.195312 706.542969 700.648438 699.242188 C 713.109375 691.941406 723.28125 680.703125 725.132812 667.699219 C 726.667969 656.972656 722.195312 646.21875 714.375 637.730469 " fill-opacity="1" fill-rule="nonzero"/><path fill="#cedff4" d="M 599.695312 479.945312 C 598.542969 479.945312 597.480469 479.195312 597.148438 478.03125 L 573.324219 395.890625 C 572.914062 394.480469 573.726562 393.007812 575.128906 392.597656 C 576.539062 392.199219 578.003906 393 578.417969 394.410156 L 602.238281 476.558594 C 602.644531 477.960938 601.835938 479.433594 600.429688 479.84375 C 600.1875 479.910156 599.933594 479.945312 599.695312 479.945312 " fill-opacity="1" fill-rule="nonzero"/><path fill="#cedff4" d="M 334.539062 534.453125 C 334.539062 534.453125 334.535156 534.453125 334.527344 534.453125 C 333.0625 534.445312 331.882812 533.253906 331.890625 531.789062 C 332.074219 505.105469 348.738281 411.003906 349.445312 407.003906 C 349.699219 405.566406 351.074219 404.605469 352.519531 404.859375 C 353.957031 405.117188 354.917969 406.492188 354.664062 407.929688 C 354.496094 408.90625 337.375 505.589844 337.199219 531.824219 C 337.183594 533.28125 336 534.453125 334.539062 534.453125 " fill-opacity="1" fill-rule="nonzero"/><g clip-path="url(#ef13c94f53)"><path fill="#4995aa" d="M 767.671875 778.816406 L 767.761719 790.011719 L 42.304688 795.542969 L 42.222656 784.339844 L 767.671875 778.816406 " fill-opacity="1" fill-rule="nonzero"/></g><path stroke-linecap="round" transform="matrix(0.174408, 0, 0, -0.174364, 42.222508, 795.538684)" fill="none" stroke-linejoin="round" d="M 1326.180786 815.124857 C 1350.929635 858.787976 1386.720278 899.471518 1434.694969 914.190178 C 1482.647263 928.953644 1543.276343 909.082333 1560.947693 862.125998 C 1568.249163 897.701694 1607.15301 917.460992 1643.010844 923.240922 C 1689.21616 930.678662 1739.923304 922.187989 1775.042032 891.227276 C 1810.115966 860.311368 1824.293361 804.304289 1799.768484 764.494457 " stroke="#cedff4" stroke-width="16.059999" stroke-opacity="1" stroke-miterlimit="10"/><path stroke-linecap="round" transform="matrix(0.174408, 0, 0, -0.174364, 42.222508, 795.538684)" fill="none" stroke-linejoin="round" d="M 3511.918472 1003.801505 C 3530.037765 1021.656561 3563.543899 1019.864335 3579.647448 1000.172246 C 3595.750998 980.480157 3590.823625 947.323966 3569.725512 933.098168 C 3584.104481 938.340431 3598.752216 943.605096 3614.027071 944.434001 C 3629.34672 945.240503 3645.629447 940.983965 3655.976929 929.692938 C 3670.42309 913.943747 3669.101658 887.77724 3656.648844 870.392642 C 3644.151235 853.052851 3622.918738 843.643661 3601.753434 840.641682 " stroke="#cedff4" stroke-width="16.059999" stroke-opacity="1" stroke-miterlimit="10"/><path stroke-linecap="round" transform="matrix(0.174408, 0, 0, -0.174364, 42.222508, 795.538684)" fill="none" stroke-linejoin="round" d="M 2991.991076 861.073064 C 2985.5183 878.592079 2967.84695 891.406498 2949.190126 892.235403 C 2929.570224 893.064308 2911.092577 881.571655 2898.594968 866.49455 C 2886.097359 851.372638 2878.54952 832.867899 2871.203256 814.699203 C 2841.258269 824.825283 2810.14863 831.770161 2778.703034 835.354614 C 2749.452359 838.715039 2718.253131 838.827053 2692.429219 824.690866 C 2666.560513 810.554679 2648.754781 778.182588 2659.684589 750.783925 " stroke="#cedff4" stroke-width="16.059999" stroke-opacity="1" stroke-miterlimit="10"/><path stroke-linecap="round" transform="matrix(0.174408, 0, 0, -0.174364, 42.222508, 795.538684)" fill="none" stroke-linejoin="round" d="M 537.218846 1033.597271 C 545.90894 1066.887878 571.710454 1095.205058 604.051936 1106.921738 C 636.415815 1118.593614 674.378981 1113.373754 702.35302 1093.32322 C 727.415428 1121.954038 766.207289 1138.016869 804.170455 1135.485349 C 842.178415 1132.931426 878.484192 1111.850361 899.537512 1080.127952 " stroke="#cedff4" stroke-width="16.059999" stroke-opacity="1" stroke-miterlimit="10"/><path fill="#fffefd" d="M 145.410156 688.242188 C 151.847656 702.253906 158.285156 716.257812 164.71875 730.265625 C 167.808594 736.996094 170.792969 743.785156 174.085938 750.414062 C 177.082031 756.453125 180.476562 762.351562 184.875 767.488281 C 189.351562 772.707031 194.851562 777.058594 201.296875 779.558594 C 202.132812 779.886719 202.5 778.53125 201.664062 778.210938 C 189.441406 773.46875 181.613281 762.191406 175.910156 750.9375 C 172.648438 744.496094 169.746094 737.867188 166.734375 731.316406 C 163.578125 724.4375 160.417969 717.5625 157.257812 710.691406 C 153.714844 702.96875 150.164062 695.25 146.621094 687.535156 C 146.246094 686.714844 145.035156 687.425781 145.410156 688.242188 " fill-opacity="1" fill-rule="nonzero"/><path fill="#fffefd" d="M 170.324219 710.636719 C 174.050781 719.605469 177.777344 728.578125 181.503906 737.539062 C 181.84375 738.363281 183.199219 738.003906 182.851562 737.171875 C 179.125 728.203125 175.398438 719.230469 171.671875 710.261719 C 171.332031 709.445312 169.976562 709.804688 170.324219 710.636719 " fill-opacity="1" fill-rule="nonzero"/><path fill="#fffefd" d="M 184.820312 747.050781 C 187.363281 750.570312 189.910156 754.085938 192.453125 757.605469 C 192.691406 757.941406 194.019531 757.695312 193.792969 757.375 C 191.253906 753.859375 188.707031 750.339844 186.164062 746.824219 C 185.925781 746.492188 184.597656 746.734375 184.820312 747.050781 " fill-opacity="1" fill-rule="nonzero"/><path fill="#515151" d="M 252.785156 174.113281 C 249.917969 157.617188 255.390625 140.113281 266.597656 127.761719 C 269.738281 124.304688 273.320312 121.273438 277.257812 118.765625 C 277.523438 118.59375 276.34375 118.070312 275.984375 118.304688 C 261.746094 127.363281 252.433594 143.332031 250.886719 160.074219 C 250.464844 164.699219 250.648438 169.367188 251.445312 173.9375 C 251.503906 174.316406 252.863281 174.542969 252.785156 174.113281 " fill-opacity="1" fill-rule="nonzero"/><path fill="#515151" d="M 282.039062 133.722656 C 282.035156 134.859375 281.109375 135.773438 279.964844 135.765625 C 278.824219 135.757812 277.914062 134.832031 277.917969 133.695312 C 277.925781 132.558594 278.859375 131.640625 279.996094 131.644531 C 281.132812 131.652344 282.046875 132.585938 282.039062 133.722656 " fill-opacity="1" fill-rule="nonzero"/><path fill="#515151" d="M 268.972656 148.011719 C 268.96875 148.953125 268.195312 149.707031 267.257812 149.703125 C 266.316406 149.695312 265.5625 148.925781 265.566406 147.984375 C 265.574219 147.046875 266.335938 146.289062 267.277344 146.296875 C 268.21875 146.304688 268.980469 147.074219 268.972656 148.011719 " fill-opacity="1" fill-rule="nonzero"/><path fill="#515151" d="M 278.070312 159.796875 C 278.0625 160.75 277.285156 161.519531 276.332031 161.511719 C 275.371094 161.503906 274.601562 160.730469 274.609375 159.769531 C 274.613281 158.816406 275.398438 158.046875 276.351562 158.050781 C 277.304688 158.058594 278.074219 158.835938 278.070312 159.796875 " fill-opacity="1" fill-rule="nonzero"/><path fill="#ffffff" d="M 290.5625 179.65625 C 295.441406 184.464844 299.496094 189.996094 303.207031 195.699219 C 306.878906 201.433594 310.171875 207.414062 312.976562 213.625 C 313.707031 215.164062 314.359375 216.738281 315.023438 218.304688 L 315.988281 220.667969 C 316.308594 221.457031 316.636719 222.238281 316.910156 223.050781 C 318.074219 226.25 319.226562 229.453125 320.136719 232.742188 C 322.085938 239.269531 323.449219 245.976562 324.109375 252.765625 C 323.355469 251.222656 322.644531 249.675781 321.976562 248.121094 C 321.304688 246.570312 320.691406 245.003906 319.980469 243.46875 C 319.300781 241.929688 318.640625 240.386719 318 238.84375 C 317.371094 237.292969 316.644531 235.773438 315.996094 234.242188 L 315.007812 231.933594 L 314.523438 230.78125 L 314.011719 229.636719 C 313.3125 228.117188 312.664062 226.585938 311.996094 225.058594 C 311.34375 223.527344 310.628906 222.023438 309.945312 220.503906 L 308.9375 218.214844 C 308.609375 217.453125 308.234375 216.710938 307.890625 215.953125 C 305.148438 209.878906 302.273438 203.871094 299.378906 197.847656 L 290.5625 179.65625 " fill-opacity="1" fill-rule="nonzero"/><path fill="#ffffff" d="M 332.863281 220.488281 C 336.148438 222.90625 338.792969 225.933594 341.175781 229.105469 C 343.535156 232.300781 345.597656 235.707031 347.308594 239.28125 C 347.519531 239.730469 347.742188 240.171875 347.949219 240.625 L 348.535156 241.984375 C 348.914062 242.90625 349.316406 243.8125 349.652344 244.742188 C 350.320312 246.617188 350.972656 248.488281 351.449219 250.425781 C 352.480469 254.257812 353.089844 258.222656 353.050781 262.269531 C 351.886719 260.578125 351.007812 258.835938 350.03125 257.125 C 349.5625 256.269531 349.105469 255.417969 348.671875 254.550781 C 348.242188 253.6875 347.757812 252.847656 347.328125 251.992188 C 345.609375 248.558594 343.902344 245.152344 342.257812 241.714844 C 340.625 238.28125 338.980469 234.839844 337.394531 231.339844 C 336.613281 229.582031 335.820312 227.820312 335.066406 226.019531 C 334.300781 224.222656 333.550781 222.402344 332.863281 220.488281 " fill-opacity="1" fill-rule="nonzero"/><path fill="#ffffff" d="M 306.867188 285.367188 C 307.902344 286.496094 308.6875 287.761719 309.414062 289.042969 C 310.128906 290.332031 310.738281 291.660156 311.261719 293.015625 C 312.308594 295.71875 313.039062 298.53125 313.460938 301.386719 C 313.882812 304.238281 314.0625 307.132812 313.835938 310.027344 C 313.640625 312.921875 313.121094 315.816406 311.96875 318.636719 C 311.328125 317.226562 310.933594 315.84375 310.511719 314.460938 C 310.097656 313.085938 309.78125 311.722656 309.449219 310.363281 C 308.835938 307.644531 308.324219 304.941406 307.921875 302.222656 C 307.535156 299.5 307.179688 296.773438 306.984375 293.996094 C 306.886719 292.597656 306.796875 291.195312 306.777344 289.765625 C 306.75 288.335938 306.75 286.890625 306.867188 285.367188 " fill-opacity="1" fill-rule="nonzero"/><path fill="#515151" d="M 235.984375 476.839844 C 232.640625 478.71875 229.433594 480.796875 226.332031 483.015625 C 226.421875 482.683594 226.507812 482.347656 226.597656 482.007812 C 229.492188 479.929688 232.503906 477.988281 235.625 476.21875 C 236.019531 476 236.382812 476.613281 235.984375 476.839844 " fill-opacity="1" fill-rule="nonzero"/><path fill="#515151" d="M 239.222656 483.132812 C 233.90625 485.726562 228.984375 488.859375 224.480469 492.578125 C 224.507812 492.246094 224.566406 491.910156 224.621094 491.578125 C 228.988281 488.023438 233.746094 485 238.859375 482.511719 C 239.285156 482.320312 239.617188 482.941406 239.222656 483.132812 " fill-opacity="1" fill-rule="nonzero"/><path fill="#515151" d="M 239.527344 491.339844 C 233.628906 493.765625 228.289062 497.089844 223.578125 501.257812 C 223.605469 500.949219 223.613281 500.617188 223.640625 500.304688 C 228.289062 496.25 233.546875 493.035156 239.367188 490.664062 C 239.761719 490.503906 239.953125 491.175781 239.527344 491.339844 " fill-opacity="1" fill-rule="nonzero"/><path fill="#515151" d="M 240.523438 497.230469 C 234.011719 499.730469 228.320312 503.613281 223.640625 508.625 C 223.613281 508.339844 223.585938 508.035156 223.585938 507.726562 C 228.191406 502.832031 233.875 499.0625 240.359375 496.53125 C 240.78125 496.386719 240.945312 497.0625 240.523438 497.230469 " fill-opacity="1" fill-rule="nonzero"/><path fill="#515151" d="M 240.84375 504.316406 C 235.101562 507.835938 229.914062 511.996094 225.261719 516.785156 C 225.179688 516.5625 225.097656 516.335938 225.015625 516.085938 C 229.617188 511.351562 234.800781 507.214844 240.511719 503.722656 C 240.871094 503.476562 241.230469 504.097656 240.84375 504.316406 " fill-opacity="1" fill-rule="nonzero"/><path fill="#965b3e" d="M 89.25 466.125 C 89.332031 466.050781 89.40625 465.96875 89.484375 465.894531 C 89.679688 465.703125 89.851562 465.503906 89.667969 465.238281 C 89.484375 464.96875 88.957031 464.832031 88.679688 464.785156 C 88.148438 464.695312 87.589844 464.679688 87.058594 464.777344 C 86.886719 464.8125 86.722656 464.851562 86.558594 464.886719 C 86.292969 464.953125 86.050781 465.070312 85.824219 465.226562 C 85.742188 465.300781 85.667969 465.375 85.585938 465.457031 C 85.394531 465.648438 85.226562 465.839844 85.410156 466.113281 C 85.585938 466.382812 86.109375 466.519531 86.398438 466.566406 C 86.929688 466.65625 87.488281 466.671875 88.019531 466.574219 C 88.183594 466.535156 88.34375 466.5 88.515625 466.464844 C 88.78125 466.390625 89.027344 466.28125 89.25 466.125 " fill-opacity="1" fill-rule="nonzero"/><path fill="#965b3e" d="M 81.582031 473.644531 C 82.21875 473.644531 83.800781 473.398438 84.039062 472.65625 C 84.296875 471.859375 82.839844 471.867188 82.425781 471.867188 C 81.785156 471.867188 80.203125 472.105469 79.964844 472.855469 C 79.707031 473.652344 81.164062 473.644531 81.582031 473.644531 " fill-opacity="1" fill-rule="nonzero"/><path fill="#965b3e" d="M 88.085938 471.710938 C 88.011719 471.785156 87.9375 471.859375 87.855469 471.941406 C 87.664062 472.132812 87.542969 472.371094 87.730469 472.609375 C 87.945312 472.859375 88.476562 472.949219 88.761719 472.976562 C 89.300781 473.011719 89.859375 472.976562 90.375 472.835938 C 90.785156 472.71875 91.253906 472.582031 91.566406 472.277344 C 91.644531 472.195312 91.722656 472.117188 91.800781 472.042969 C 91.988281 471.851562 92.113281 471.609375 91.921875 471.375 C 91.71875 471.117188 91.179688 471.027344 90.894531 471.007812 C 90.355469 470.96875 89.796875 471.007812 89.277344 471.152344 C 88.871094 471.265625 88.398438 471.402344 88.085938 471.710938 " fill-opacity="1" fill-rule="nonzero"/></svg>