<svg xmlns="http://www.w3.org/2000/svg" xmlns:xlink="http://www.w3.org/1999/xlink" width="1080" zoomAndPan="magnify" viewBox="0 0 810 809.999993" height="1080" preserveAspectRatio="xMidYMid meet" version="1.0"><defs><clipPath id="362a2a15ba"><path d="M 68.050781 711.664062 L 810 711.664062 L 810 723.167969 L 68.050781 723.167969 Z M 68.050781 711.664062 " clip-rule="nonzero"/></clipPath></defs><path fill="#a3654a" d="M 468.722656 257.789062 C 468.722656 257.789062 443.101562 249.328125 435.179688 214.632812 C 427.253906 179.9375 438.417969 153.214844 458.96875 141.613281 C 479.507812 130.019531 474.722656 141.472656 481.734375 135.433594 C 488.746094 129.394531 495.75 123.355469 509.914062 127.027344 C 524.078125 130.699219 553.09375 125.777344 564.0625 137.085938 C 575.039062 148.398438 566.914062 151.734375 586.636719 168.933594 C 606.355469 186.144531 602.253906 211.207031 591.085938 237.929688 C 579.914062 264.652344 566.125 271.566406 566.125 271.566406 L 525.574219 234.453125 L 468.722656 257.789062 " fill-opacity="1" fill-rule="nonzero"/><path fill="#f6b592" d="M 595.691406 395.15625 L 532.804688 400.25 L 507.953125 393.695312 L 528.03125 339.925781 L 521.976562 312.839844 L 518.175781 295.867188 L 545.066406 254.238281 L 557.296875 235.3125 C 557.296875 235.3125 593.875 303.386719 600.488281 319.097656 C 607.042969 334.804688 595.691406 395.15625 595.691406 395.15625 " fill-opacity="1" fill-rule="nonzero"/><path fill="#e57c5c" d="M 550.359375 295.867188 C 544.859375 309.296875 531.890625 312.515625 521.976562 312.839844 L 518.175781 295.867188 L 545.066406 254.238281 C 546.527344 253.359375 547.402344 252.894531 547.402344 252.894531 C 547.402344 252.894531 559.871094 272.640625 550.359375 295.867188 " fill-opacity="1" fill-rule="nonzero"/><path fill="#5faad3" d="M 516.796875 345.859375 C 516.796875 345.859375 566.457031 376.980469 604.867188 324.808594 L 637.421875 477.914062 L 631.152344 592.980469 L 507.972656 588.589844 L 516.796875 345.859375 " fill-opacity="1" fill-rule="nonzero"/><path fill="#d7edf9" d="M 440.238281 295.335938 C 443.070312 311.039062 432.628906 326.0625 416.925781 328.894531 C 401.222656 331.726562 386.191406 321.289062 383.363281 305.589844 C 380.53125 289.882812 390.964844 274.863281 406.675781 272.03125 C 422.378906 269.199219 437.410156 279.636719 440.238281 295.335938 " fill-opacity="1" fill-rule="nonzero"/><path fill="#ffffff" d="M 356.949219 318.296875 C 356.949219 318.296875 360.527344 333.554688 356.949219 335.101562 C 353.375 336.652344 349.558594 324.878906 349.558594 324.878906 C 349.558594 324.878906 348.128906 339.367188 346.335938 340.261719 C 344.546875 341.152344 336.226562 335.96875 336.226562 335.96875 L 348.304688 317.636719 L 356.949219 318.296875 " fill-opacity="1" fill-rule="nonzero"/><path fill="#d89371" d="M 361.109375 316.195312 C 357.992188 324.574219 350.179688 328.898438 343.195312 333.644531 C 336.925781 337.90625 331.804688 343.578125 327.597656 349.84375 C 324.449219 354.539062 321.066406 359.917969 321.902344 365.839844 C 322.386719 369.273438 324.273438 373.507812 328.085938 374.195312 C 329.972656 374.535156 331.886719 373.851562 333.609375 372.933594 C 338.957031 370.074219 345.824219 364.804688 352.183594 367.636719 C 359.109375 370.761719 337.644531 390.300781 332.371094 395.796875 C 327.449219 400.917969 322.300781 406.523438 324.992188 428.5 C 325.136719 429.929688 325.363281 431.417969 325.589844 432.996094 C 326.019531 435.859375 326.421875 440.980469 326.765625 447.816406 C 329.457031 502.355469 329.113281 667.316406 325.9375 693.386719 C 339.015625 699.910156 345.167969 705.632812 348.058594 709.492188 C 349.777344 711.78125 348.753906 717.179688 345.921875 717.4375 C 333.875 718.492188 303.292969 718.867188 298.457031 717.433594 C 291.398438 715.34375 291.269531 695.195312 290.6875 689.636719 C 289.101562 674.59375 290.285156 659.503906 286.359375 644.753906 C 287.460938 648.9375 263.132812 664.070312 259.699219 666.648438 C 252.191406 672.285156 245.941406 673.367188 240.625 681.054688 C 237.863281 685.042969 234.921875 689.15625 231.332031 692.441406 C 228.789062 694.773438 225.820312 696.527344 222.503906 697.433594 C 233.53125 697.40625 247.03125 704.566406 253.382812 713.550781 C 254.667969 715.355469 253.464844 717.820312 251.257812 717.871094 C 251.257812 717.871094 135.414062 717.4375 135.3125 717.4375 C 131.125 717.417969 127.117188 718.207031 122.859375 717.761719 C 116.347656 717.082031 109.769531 714.730469 104.441406 710.726562 C 98.921875 706.589844 96.121094 700.214844 93.714844 693.933594 C 91.066406 686.996094 88.417969 679.753906 86.761719 672.546875 C 83.660156 659.042969 84.390625 645.355469 88.023438 632.0625 C 89.769531 625.5625 92.261719 618.585938 95.527344 611.117188 C 104.800781 589.941406 115.53125 570.253906 126.722656 552.34375 C 164.707031 491.597656 204.601562 455.839844 214.5625 447.542969 C 215.363281 446.859375 219.429688 441.347656 220.089844 440.09375 C 222.238281 436 223.699219 429.019531 224.8125 420.574219 C 228.847656 389.957031 228.390625 339.859375 240.328125 336.878906 C 240.328125 336.878906 289.699219 291.667969 345.800781 296.992188 C 346.71875 297.082031 347.65625 297.191406 348.605469 297.308594 C 351.949219 297.734375 356.53125 301.484375 359.109375 304.71875 C 359.621094 305.375 360.082031 306.003906 360.398438 306.578125 C 362.144531 309.585938 362.3125 312.929688 361.109375 316.195312 " fill-opacity="1" fill-rule="nonzero"/><path fill="#965b3e" d="M 228.34375 522.882812 C 221.628906 515.046875 205.449219 520.019531 208.308594 531.464844 C 211.171875 542.910156 202.582031 548.636719 193.992188 548.636719 C 185.410156 548.636719 196.859375 560.078125 205.449219 560.078125 C 214.03125 560.078125 245.515625 542.910156 228.34375 522.882812 " fill-opacity="1" fill-rule="nonzero"/><path fill="#965b3e" d="M 155.722656 648.460938 C 155.722656 636.316406 178.621094 639.871094 184.34375 645.59375 C 190.066406 651.316406 195.792969 662.769531 184.34375 662.769531 C 172.894531 662.769531 155.722656 668.484375 155.722656 648.460938 " fill-opacity="1" fill-rule="nonzero"/><path fill="#965b3e" d="M 133.824219 611.660156 C 136.113281 620.417969 141.664062 623.648438 129.703125 631.492188 C 117.707031 639.328125 111.4375 629.746094 105.003906 640.816406 C 98.5625 651.859375 91.460938 646.253906 91.460938 646.253906 L 88.023438 632.0625 C 89.769531 625.5625 92.261719 618.585938 95.527344 611.117188 C 104.800781 589.941406 115.53125 570.253906 126.722656 552.34375 C 126.8125 560.472656 129.300781 568.390625 138.921875 567.28125 C 157.980469 565.050781 169.804688 577.839844 159.410156 588.054688 C 148.992188 598.296875 131.5 602.933594 133.824219 611.660156 " fill-opacity="1" fill-rule="nonzero"/><path fill="#f6b592" d="M 453.503906 197.621094 C 455.023438 208.0625 456.640625 243.777344 470.460938 269.722656 C 484.289062 295.679688 503.382812 303.652344 509.902344 304.136719 C 516.429688 304.621094 537.601562 302.253906 549.886719 278.234375 C 562.160156 254.21875 562.503906 231.941406 562.503906 231.941406 C 562.503906 231.941406 550.273438 202.175781 540.410156 193.574219 C 530.554688 184.96875 505.90625 163.460938 497.78125 166.796875 C 489.65625 170.128906 451.761719 185.6875 453.503906 197.621094 " fill-opacity="1" fill-rule="nonzero"/><path fill="#a3654a" d="M 465.925781 189.363281 C 477.621094 186.402344 480.429688 170.757812 490.285156 179.363281 C 500.148438 187.960938 505.078125 192.261719 517.015625 190.523438 C 528.957031 188.78125 546.042969 214.976562 557.707031 212.566406 C 569.367188 210.144531 516.246094 165.539062 516.246094 165.539062 L 499.855469 156.460938 L 470.078125 168.679688 L 453.351562 181.871094 L 449.828125 211.78125 C 449.828125 211.78125 459.140625 242.949219 460.042969 240.898438 C 460.941406 238.847656 445.863281 194.433594 465.925781 189.363281 " fill-opacity="1" fill-rule="nonzero"/><path fill="#a3654a" d="M 498.917969 136.957031 C 498.917969 136.957031 474.960938 96.320312 501.183594 87.191406 C 507.101562 85.128906 512.78125 81.734375 519.28125 82.902344 C 522.722656 83.53125 525.859375 85.261719 529.242188 86.128906 C 533.808594 87.292969 538.644531 86.820312 543.269531 87.734375 C 568.953125 92.789062 550.222656 148.285156 522.402344 142.5 C 495.988281 136.996094 498.917969 136.957031 498.917969 136.957031 " fill-opacity="1" fill-rule="nonzero"/><path fill="#8e4d36" d="M 524.222656 146.449219 C 525.554688 146.25 526.914062 146.222656 528.265625 146.296875 C 529.621094 146.359375 530.980469 146.554688 532.332031 146.851562 C 535.027344 147.476562 537.765625 148.597656 540.105469 150.679688 C 541.25 151.734375 542.265625 153.03125 542.972656 154.527344 C 543.683594 156.007812 544.078125 157.765625 544.03125 159.472656 C 544.011719 161.191406 543.554688 162.785156 543.109375 164.109375 C 542.886719 164.761719 542.660156 165.363281 542.542969 165.804688 L 542.480469 166.066406 C 542.472656 166.121094 542.449219 166.210938 542.460938 166.199219 C 542.449219 166.269531 542.488281 166.066406 542.390625 165.855469 C 542.285156 165.601562 542.144531 165.429688 542.066406 165.390625 C 542.058594 165.375 542.074219 165.382812 542.074219 165.394531 C 542.125 165.414062 542.167969 165.433594 542.222656 165.464844 C 542.511719 165.597656 542.992188 165.730469 543.507812 165.839844 C 543.765625 165.898438 544.058594 165.945312 544.328125 165.996094 L 545.203125 166.132812 C 545.804688 166.210938 546.386719 166.269531 547.089844 166.371094 C 549.796875 166.703125 552.519531 167.230469 555.171875 168.183594 C 557.800781 169.132812 560.414062 170.484375 562.511719 172.476562 C 564.605469 174.46875 565.992188 177.105469 566.371094 179.75 C 565.570312 178.671875 564.722656 177.6875 563.792969 176.859375 C 563.558594 176.644531 563.324219 176.445312 563.082031 176.265625 C 562.828125 176.078125 562.609375 175.871094 562.34375 175.714844 L 561.585938 175.222656 L 560.796875 174.789062 C 558.675781 173.683594 556.359375 173.050781 553.972656 172.625 C 551.582031 172.210938 549.109375 171.996094 546.621094 171.898438 C 546.023438 171.875 545.300781 171.828125 544.609375 171.785156 L 543.535156 171.679688 C 543.164062 171.621094 542.804688 171.589844 542.421875 171.519531 C 541.664062 171.375 540.871094 171.203125 539.953125 170.839844 C 539.707031 170.730469 539.460938 170.613281 539.21875 170.492188 C 538.949219 170.324219 538.683594 170.15625 538.410156 169.949219 C 537.847656 169.480469 537.246094 168.824219 536.925781 167.941406 C 536.613281 167.117188 536.570312 166.25 536.640625 165.671875 C 536.664062 165.332031 536.722656 165.109375 536.777344 164.832031 C 536.828125 164.585938 536.886719 164.378906 536.949219 164.152344 C 537.203125 163.347656 537.453125 162.730469 537.675781 162.15625 C 538.109375 161.03125 538.40625 160.085938 538.503906 159.1875 C 538.613281 158.289062 538.488281 157.421875 538.21875 156.492188 C 537.90625 155.582031 537.441406 154.6875 536.789062 153.847656 C 536.136719 153.011719 535.3125 152.230469 534.390625 151.507812 C 533.464844 150.789062 532.429688 150.136719 531.335938 149.535156 C 529.144531 148.332031 526.742188 147.34375 524.222656 146.449219 " fill-opacity="1" fill-rule="nonzero"/><path fill="#8e4d36" d="M 468.636719 172.871094 C 468.628906 171.273438 468.855469 169.753906 469.148438 168.261719 C 469.453125 166.765625 469.859375 165.3125 470.339844 163.882812 C 471.300781 161.03125 472.59375 158.308594 474.191406 155.730469 C 475.796875 153.160156 477.710938 150.71875 480.125 148.65625 C 481.347656 147.640625 482.683594 146.710938 484.203125 146.050781 L 484.773438 145.808594 C 484.976562 145.746094 485.175781 145.675781 485.375 145.617188 C 485.578125 145.566406 485.777344 145.5 485.976562 145.453125 C 486.183594 145.410156 486.398438 145.382812 486.605469 145.351562 C 487.417969 145.207031 488.292969 145.28125 489.042969 145.519531 C 487.644531 146.300781 486.753906 147.304688 485.898438 148.371094 C 485.058594 149.445312 484.296875 150.570312 483.558594 151.726562 C 482.089844 154.046875 480.652344 156.433594 479.160156 158.828125 C 477.667969 161.21875 476.125 163.617188 474.417969 165.976562 C 472.707031 168.332031 470.914062 170.664062 468.636719 172.871094 " fill-opacity="1" fill-rule="nonzero"/><path fill="#4c4c4c" d="M 510.832031 229.382812 C 511.765625 231.644531 511.292969 233.984375 509.785156 234.605469 C 508.273438 235.226562 506.292969 233.890625 505.359375 231.625 C 504.429688 229.363281 504.902344 227.023438 506.414062 226.402344 C 507.921875 225.78125 509.902344 227.113281 510.832031 229.382812 " fill-opacity="1" fill-rule="nonzero"/><path fill="#4c4c4c" d="M 478.085938 243.046875 C 479.019531 245.316406 478.546875 247.648438 477.039062 248.269531 C 475.523438 248.890625 473.546875 247.558594 472.613281 245.296875 C 471.683594 243.027344 472.15625 240.683594 473.667969 240.070312 C 475.175781 239.449219 477.15625 240.78125 478.085938 243.046875 " fill-opacity="1" fill-rule="nonzero"/><path fill="#d89371" d="M 93.308594 690.933594 C 93.308594 690.933594 46.082031 706.070312 23.902344 683.480469 C 1.71875 660.886719 0.0546875 609.980469 14.414062 593.648438 C 14.414062 593.648438 11 658.113281 36.191406 672.71875 C 61.378906 687.328125 90.746094 664.289062 90.746094 664.289062 L 93.308594 690.933594 " fill-opacity="1" fill-rule="nonzero"/><path fill="#e22b35" d="M 325.386719 449.28125 C 304.828125 455.851562 265.417969 462.878906 221.960938 441.554688 C 220.375 440.78125 219.703125 438.925781 220.316406 437.28125 C 221.042969 435.355469 221.675781 433.066406 222.246094 430.5 C 223.359375 425.460938 228.609375 422.449219 233.503906 424.195312 C 255.753906 432.101562 290.429688 440.726562 322.355469 430.453125 C 324.675781 429.703125 327.210938 430.898438 328.1875 433.125 C 328.445312 433.71875 328.652344 434.28125 328.726562 434.742188 C 329.0625 436.886719 329.242188 439.332031 329.46875 443.316406 C 329.617188 445.984375 327.957031 448.460938 325.386719 449.28125 " fill-opacity="1" fill-rule="nonzero"/><path fill="#6b3f2c" d="M 359.109375 304.71875 C 354.875 305.863281 347.4375 308.882812 344.203125 308.136719 C 340.742188 307.335938 344.136719 300.824219 345.800781 296.992188 C 346.71875 297.082031 347.65625 297.191406 348.605469 297.308594 C 351.949219 297.734375 356.53125 301.484375 359.109375 304.71875 " fill-opacity="1" fill-rule="nonzero"/><path fill="#f2f7f9" d="M 763.726562 713.429688 L 465.527344 713.429688 C 465.675781 709.800781 465.847656 705.878906 466.023438 701.726562 C 469.097656 630.664062 474.742188 487.019531 471.523438 457.910156 C 468.308594 428.832031 464.03125 395.453125 489.84375 366.984375 C 498.652344 357.273438 510.976562 348.117188 528.03125 339.925781 C 514.164062 406.246094 537.429688 553.984375 537.429688 553.984375 L 549.335938 608.253906 L 549.628906 609.566406 C 549.628906 609.566406 552.207031 597.546875 556.210938 578.855469 C 569.585938 516.128906 598.878906 378.246094 600.109375 366.726562 C 601.394531 354.640625 599.351562 329.714844 597.417969 319.796875 C 596.945312 317.398438 598.441406 314.558594 598.441406 314.558594 C 598.441406 314.558594 598.496094 314.589844 599.113281 314.765625 C 604.324219 316.257812 620.949219 322.109375 642.128906 329.625 C 661.589844 336.53125 681.519531 344.8125 690.59375 352.125 C 694.660156 355.429688 700.042969 368.011719 706.046875 386.820312 C 719.1875 427.984375 735.304688 499.011719 747.160156 568.238281 C 749.210938 580.199219 751.140625 592.109375 752.898438 603.78125 C 753.511719 607.816406 754.09375 611.855469 754.652344 615.832031 C 759.183594 647.714844 762.347656 677.53125 763.402344 701.726562 C 763.578125 705.792969 763.667969 709.710938 763.726562 713.429688 " fill-opacity="1" fill-rule="nonzero"/><path fill="#cedff4" d="M 629.046875 416.007812 L 615.144531 434.292969 L 622.460938 440.144531 L 558.816406 621.414062 L 564.664062 581.796875 L 605.878906 322.757812 L 606.90625 317.519531 C 612.113281 319.011719 629.402344 325.050781 650.582031 332.574219 L 629.046875 416.007812 " fill-opacity="1" fill-rule="nonzero"/><path fill="#cedff4" d="M 527.378906 530.675781 C 521.40625 484.128906 512.082031 393.882812 522.085938 346.027344 C 505.03125 354.21875 492.710938 363.375 483.902344 373.089844 L 498.648438 443.300781 L 516.238281 453.542969 L 510.851562 469.632812 L 523.679688 531.703125 L 527.378906 530.675781 " fill-opacity="1" fill-rule="nonzero"/><g clip-path="url(#362a2a15ba)"><path fill="#4995aa" d="M 810.082031 711.722656 L 810.082031 723.167969 L 68.761719 723.167969 L 68.761719 711.722656 L 810.082031 711.722656 " fill-opacity="1" fill-rule="nonzero"/></g><path fill="#4c4c4c" d="M 441.117188 381.539062 C 439.539062 381.539062 438.058594 380.542969 437.515625 378.964844 L 420.304688 328.875 C 419.625 326.882812 420.683594 324.714844 422.671875 324.03125 C 424.667969 323.34375 426.828125 324.414062 427.515625 326.398438 L 444.726562 376.488281 C 445.40625 378.480469 444.34375 380.648438 442.359375 381.332031 C 441.949219 381.472656 441.53125 381.539062 441.117188 381.539062 " fill-opacity="1" fill-rule="nonzero"/><path stroke-linecap="butt" transform="matrix(0.165576, 0, 0, -0.165528, 5.132873, 723.16856)" fill="none" stroke-linejoin="miter" d="M 2627.821896 2584.651746 C 2644.925967 2489.784952 2581.865027 2399.024332 2487.025903 2381.915271 C 2392.186779 2364.806209 2301.405449 2427.861949 2284.32497 2522.705145 C 2267.220899 2617.595538 2330.234655 2708.33256 2425.120963 2725.441621 C 2519.960086 2742.550682 2610.741417 2679.494942 2627.821896 2584.651746 Z M 2627.821896 2584.651746 " stroke="#4c4c4c" stroke-width="35.348" stroke-opacity="1" stroke-miterlimit="10"/><path stroke-linecap="round" transform="matrix(0.165576, 0, 0, -0.165528, 5.132873, 723.16856)" fill="none" stroke-linejoin="round" d="M 1074.300427 541.570253 C 1074.300427 541.570253 1200.233572 667.540141 1380.191989 613.522705 C 1458.398878 590.089191 1496.594038 509.54681 1499.543016 432.851019 C 1504.52089 301.335435 1398.192549 238.633676 1326.567778 145.465988 " stroke="#965b3e" stroke-width="17.287001" stroke-opacity="1" stroke-miterlimit="10"/><path stroke-linecap="round" transform="matrix(0.165576, 0, 0, -0.165528, 5.132873, 723.16856)" fill="none" stroke-linejoin="round" d="M 1707.858803 660.035753 L 1707.858803 462.113413 " stroke="#965b3e" stroke-width="17.993999" stroke-opacity="1" stroke-miterlimit="10"/><path fill="#6b3f2c" d="M 286.1875 322.855469 C 286.640625 321.238281 289.554688 320.636719 292.710938 321.507812 C 295.867188 322.390625 298.054688 324.414062 297.609375 326.027344 C 297.15625 327.644531 294.230469 328.246094 291.082031 327.375 C 287.925781 326.496094 285.738281 324.472656 286.1875 322.855469 " fill-opacity="1" fill-rule="nonzero"/><path fill="#ffdd5a" d="M 321.953125 463.816406 C 321.953125 468.628906 318.054688 472.519531 313.246094 472.519531 C 308.433594 472.519531 304.535156 468.628906 304.535156 463.816406 C 304.535156 459.007812 308.433594 455.109375 313.246094 455.109375 C 318.054688 455.109375 321.953125 459.007812 321.953125 463.816406 " fill-opacity="1" fill-rule="nonzero"/><path fill="#965b3e" d="M 256.414062 413.222656 C 254.46875 428.875 217.058594 433.335938 206.210938 420.171875 C 205.492188 419.320312 204.917969 418.257812 204.40625 417 C 204.324219 416.773438 204.230469 416.546875 204.148438 416.289062 C 203.402344 414.167969 202.917969 411.59375 202.6875 408.671875 C 202.660156 408.386719 202.628906 408.074219 202.628906 407.757812 C 202.484375 405.695312 202.460938 403.464844 202.570312 401.144531 C 202.601562 400.832031 202.601562 400.492188 202.628906 400.175781 C 202.769531 397.660156 203.027344 394.996094 203.429688 392.277344 C 203.460938 391.9375 203.519531 391.59375 203.574219 391.246094 C 204.003906 388.386719 204.574219 385.46875 205.261719 382.488281 C 205.351562 382.148438 205.433594 381.804688 205.519531 381.460938 C 210.414062 361.402344 221.007812 340.972656 235.03125 338.257812 C 235.03125 338.257812 238.691406 336.167969 248.683594 342.550781 C 258.644531 348.957031 258.328125 397.601562 256.414062 413.222656 " fill-opacity="1" fill-rule="nonzero"/><path fill="#f6b592" d="M 548.714844 216.464844 C 549.433594 214.277344 552.621094 211.78125 554.296875 210.40625 C 557.503906 207.765625 561.804688 205.632812 566.042969 206.808594 C 571.882812 208.433594 577.019531 215.902344 578.675781 221.421875 C 579.878906 225.445312 579.25 229.253906 577.664062 233.042969 C 576.066406 236.855469 563.164062 251.644531 551.703125 246.859375 C 540.253906 242.074219 548.703125 216.484375 548.714844 216.464844 " fill-opacity="1" fill-rule="nonzero"/><path fill="#e57c5c" d="M 556.96875 216.054688 C 556.96875 216.054688 568.738281 212.117188 571.164062 223.558594 " fill-opacity="1" fill-rule="nonzero"/><path fill="#e57c5c" d="M 485.5625 237.929688 C 487.25 241.054688 488.609375 244.273438 489.863281 247.527344 C 491.105469 250.777344 492.210938 254.074219 493.207031 257.398438 L 493.933594 259.902344 L 494.617188 262.421875 C 494.832031 263.265625 495.050781 264.105469 495.253906 264.953125 L 495.382812 265.507812 C 495.394531 265.546875 495.402344 265.597656 495.421875 265.628906 C 495.425781 265.667969 495.441406 265.707031 495.460938 265.742188 C 495.523438 265.875 495.632812 266.019531 495.847656 266.15625 C 496.28125 266.425781 497.019531 266.605469 497.789062 266.671875 C 498.570312 266.742188 499.40625 266.738281 500.246094 266.691406 C 501.09375 266.652344 501.945312 266.566406 502.8125 266.492188 C 503.6875 266.414062 504.558594 266.308594 505.445312 266.246094 C 504.667969 266.683594 503.875 267.074219 503.066406 267.433594 C 502.25 267.796875 501.414062 268.113281 500.554688 268.386719 C 499.683594 268.648438 498.789062 268.871094 497.832031 268.972656 C 497.355469 269.03125 496.855469 269.042969 496.332031 269.007812 C 495.808594 268.96875 495.253906 268.882812 494.675781 268.644531 C 494.105469 268.417969 493.503906 268.015625 493.058594 267.441406 C 492.941406 267.304688 492.851562 267.148438 492.769531 266.996094 C 492.671875 266.839844 492.605469 266.683594 492.542969 266.523438 L 492.453125 266.296875 L 492.398438 266.140625 L 492.289062 265.832031 C 491.984375 265.015625 491.714844 264.195312 491.429688 263.375 L 490.621094 260.898438 L 489.851562 258.402344 C 488.863281 255.070312 487.980469 251.714844 487.230469 248.308594 C 486.496094 244.90625 485.859375 241.46875 485.5625 237.929688 " fill-opacity="1" fill-rule="nonzero"/><path fill="#a3654a" d="M 496.84375 213.980469 C 496.863281 213.476562 496.953125 212.992188 497.089844 212.539062 C 497.152344 212.304688 497.238281 212.085938 497.316406 211.859375 C 497.40625 211.640625 497.503906 211.433594 497.601562 211.21875 C 498.007812 210.378906 498.53125 209.617188 499.144531 208.925781 C 500.367188 207.546875 501.980469 206.5 503.757812 205.871094 C 504.636719 205.53125 505.59375 205.386719 506.527344 205.257812 C 507.484375 205.238281 508.433594 205.207031 509.363281 205.445312 C 511.222656 205.789062 512.949219 206.738281 514.203125 208.257812 C 513.722656 208.472656 513.285156 208.644531 512.863281 208.78125 C 512.445312 208.929688 512.050781 209.019531 511.660156 209.1875 C 511.273438 209.324219 510.898438 209.453125 510.542969 209.550781 C 510.179688 209.660156 509.832031 209.824219 509.488281 209.925781 C 508.808594 210.113281 508.167969 210.410156 507.527344 210.574219 C 506.902344 210.84375 506.265625 211 505.644531 211.253906 C 504.390625 211.683594 503.109375 212.132812 501.695312 212.589844 C 500.265625 213.050781 498.785156 213.535156 496.84375 213.980469 " fill-opacity="1" fill-rule="nonzero"/><path fill="#a3654a" d="M 473.6875 221.605469 C 471.980469 222.238281 470.621094 222.546875 469.375 222.859375 C 468.144531 223.164062 467.097656 223.394531 466.199219 223.640625 C 465.300781 223.90625 464.550781 224.101562 463.59375 224.53125 C 462.617188 224.945312 461.546875 225.703125 460.015625 226.738281 C 459.621094 225.902344 459.460938 225.039062 459.503906 224.152344 C 459.535156 223.273438 459.796875 222.378906 460.242188 221.546875 C 461.128906 219.863281 462.90625 218.609375 464.703125 218.144531 C 466.515625 217.667969 468.308594 217.828125 469.851562 218.417969 C 470.628906 218.714844 471.347656 219.128906 472 219.644531 C 472.648438 220.167969 473.25 220.777344 473.6875 221.605469 " fill-opacity="1" fill-rule="nonzero"/><path fill="#e57c5c" d="M 509.164062 280.46875 C 511.144531 279.453125 513.039062 278.550781 514.867188 277.585938 C 516.699219 276.636719 518.457031 275.640625 520.050781 274.5 C 521.652344 273.371094 523.0625 272.082031 524.226562 270.558594 C 524.796875 269.78125 525.289062 268.941406 525.722656 268.023438 C 526.160156 267.105469 526.460938 266.101562 526.796875 265.03125 C 526.949219 265.558594 527.125 266.109375 527.171875 266.671875 C 527.210938 266.949219 527.25 267.234375 527.253906 267.523438 L 527.242188 268.386719 C 527.164062 269.535156 526.875 270.699219 526.402344 271.785156 C 525.425781 273.953125 523.773438 275.777344 521.894531 277.089844 C 520.011719 278.433594 517.910156 279.339844 515.761719 279.914062 C 513.609375 280.46875 511.390625 280.746094 509.164062 280.46875 " fill-opacity="1" fill-rule="nonzero"/><path fill="#f6b592" d="M 425.976562 399.203125 C 425.976562 399.203125 410.175781 342.722656 420.476562 335.972656 C 430.78125 329.230469 447.234375 331.835938 449.046875 336.710938 C 450.855469 341.585938 448.308594 344.832031 448.308594 344.832031 C 448.308594 344.832031 452.507812 347.792969 451.96875 351.976562 C 451.4375 356.160156 450.421875 358.382812 452.636719 362.820312 C 455.933594 365.566406 459.007812 369.285156 455.546875 375.855469 C 453.953125 380.421875 458.089844 381.71875 452.324219 384.796875 C 446.5625 387.882812 425.976562 399.203125 425.976562 399.203125 " fill-opacity="1" fill-rule="nonzero"/><path stroke-linecap="round" transform="matrix(0.165576, 0, 0, -0.165528, 5.132873, 723.16856)" fill="none" stroke-linejoin="round" d="M 2429.10798 2674.468418 L 2358.40329 2521.643204 " stroke="#ffffff" stroke-width="17.674" stroke-opacity="1" stroke-miterlimit="10"/><path stroke-linecap="round" transform="matrix(0.165576, 0, 0, -0.165528, 5.132873, 723.16856)" fill="none" stroke-linejoin="round" d="M 2456.049841 2610.82271 L 2412.452154 2516.522284 " stroke="#ffffff" stroke-width="17.674" stroke-opacity="1" stroke-miterlimit="10"/><path fill="#f2f7f9" d="M 516.796875 463.527344 L 522.175781 447.441406 L 504.589844 437.199219 L 489.84375 366.984375 C 498.652344 357.273438 510.976562 348.117188 528.03125 339.925781 C 514.164062 406.246094 554.75 550.851562 554.75 550.851562 L 571.332031 606.636719 L 550.359375 630.316406 L 516.796875 463.527344 " fill-opacity="1" fill-rule="nonzero"/><path fill="#f2f7f9" d="M 620.597656 413.0625 L 606.691406 431.347656 L 614.007812 437.199219 L 550.359375 618.464844 L 548.164062 560.4375 L 597.425781 319.816406 L 598.453125 314.570312 C 603.660156 316.066406 620.949219 322.109375 642.128906 329.625 L 620.597656 413.0625 " fill-opacity="1" fill-rule="nonzero"/><path fill="#cedff4" d="M 754.652344 615.832031 C 755.03125 618.605469 740.429688 626.140625 737.984375 627.167969 C 730.015625 630.53125 720.566406 632.054688 712.132812 633.828125 C 684.195312 639.683594 655.464844 640.980469 626.996094 640.707031 C 606.671875 640.480469 578.136719 650.78125 577.433594 640.757812 C 575.820312 618.058594 701.246094 581.019531 747.160156 568.238281 C 749.210938 580.199219 751.140625 592.109375 752.898438 603.78125 C 753.511719 607.816406 754.09375 611.851562 754.652344 615.832031 " fill-opacity="1" fill-rule="nonzero"/><path fill="#f6b592" d="M 420.476562 335.972656 C 420.476562 335.972656 388.4375 372.589844 387.460938 395.511719 C 386.484375 418.425781 413.3125 423.695312 413.3125 423.695312 L 425.976562 399.203125 L 420.476562 335.972656 " fill-opacity="1" fill-rule="nonzero"/><path fill="#f2f7f9" d="M 475.738281 483.589844 L 475.738281 388.890625 L 458.179688 464.671875 C 458.164062 464.664062 458.160156 464.660156 458.144531 464.652344 C 414.972656 550.371094 442.324219 402.664062 429.15625 401.902344 C 415.988281 401.136719 385.707031 387.25 385.707031 387.25 C 385.707031 387.25 346.6875 490.128906 374.976562 553.515625 C 403.265625 616.898438 483.746094 558.335938 483.746094 558.335938 C 483.746094 558.335938 489.785156 512.3125 475.738281 483.589844 " fill-opacity="1" fill-rule="nonzero"/><path stroke-linecap="round" transform="matrix(0.165576, 0, 0, -0.165528, 5.132873, 723.16856)" fill="none" stroke-linejoin="round" d="M 2842.224373 1572.975258 L 2810.58774 833.368242 " stroke="#cedff4" stroke-width="33.456001" stroke-opacity="1" stroke-miterlimit="10"/><path fill="#f44d64" d="M 576.605469 640.867188 L 518.832031 508.96875 C 517.4375 505.777344 518.910156 501.988281 522.105469 500.558594 C 525.328125 499.117188 529.109375 500.570312 530.519531 503.777344 L 588.3125 635.714844 C 588.953125 637.195312 588.285156 638.917969 586.804688 639.574219 L 580.542969 642.382812 C 579.035156 643.054688 577.265625 642.375 576.605469 640.867188 " fill-opacity="1" fill-rule="nonzero"/><path fill="#ffdd5a" d="M 522.003906 538.824219 L 529.453125 535.804688 C 532.058594 534.742188 533.335938 531.738281 532.300781 529.074219 L 524.542969 509.214844 C 523.503906 506.558594 520.546875 505.265625 517.941406 506.320312 L 510.492188 509.34375 L 522.003906 538.824219 " fill-opacity="1" fill-rule="nonzero"/><path fill="#f6b592" d="M 603.523438 575.671875 C 603.523438 575.671875 574.042969 582.835938 570.117188 578.109375 C 566.191406 573.382812 540.664062 584.382812 546.949219 597.332031 C 553.234375 610.285156 548.894531 619.3125 554.265625 622.480469 C 559.625 625.648438 557.917969 631.5 561.578125 634.429688 C 565.234375 637.359375 561.824219 642.71875 571.085938 645.402344 C 580.355469 648.078125 629.375 628.824219 631.082031 623.457031 C 632.789062 618.097656 603.523438 575.671875 603.523438 575.671875 " fill-opacity="1" fill-rule="nonzero"/><path fill="#f6b592" d="M 563.0625 551.140625 C 564.8125 550.398438 566.863281 551.121094 567.75 552.800781 C 571.273438 559.480469 583.214844 578.011719 588.558594 581.769531 C 595.140625 586.398438 566.457031 585.183594 566.457031 585.183594 C 566.457031 585.183594 549.957031 556.636719 563.0625 551.140625 " fill-opacity="1" fill-rule="nonzero"/><path fill="#f2f7f9" d="M 690.582031 352.113281 C 690.582031 352.113281 780.082031 445.992188 793.25 522.78125 C 806.417969 599.5625 624.984375 630.324219 624.984375 630.324219 C 624.984375 630.324219 602.269531 577.96875 595.703125 576.332031 C 589.871094 567.75 685.703125 523.996094 686.433594 519.359375 C 687.171875 514.726562 609.132812 392.828125 690.582031 352.113281 " fill-opacity="1" fill-rule="nonzero"/><path stroke-linecap="round" transform="matrix(0.165576, 0, 0, -0.165528, 5.132873, 723.16856)" fill="none" stroke-linejoin="round" d="M 3677.256907 984.187566 C 3677.256907 984.187566 4152.254649 1455.642497 4414.053096 1296.327638 " stroke="#cedff4" stroke-width="33.456001" stroke-opacity="1" stroke-miterlimit="10"/><path stroke-linecap="round" transform="matrix(0.165576, 0, 0, -0.165528, 5.132873, 723.16856)" fill="none" stroke-linejoin="round" d="M 4164.616763 1502.273538 C 4164.616763 1502.273538 4176.436266 1350.321476 4284.109341 1329.177036 " stroke="#cedff4" stroke-width="33.456001" stroke-opacity="1" stroke-miterlimit="10"/><path fill="#fcfcfc" d="M 227.871094 436.460938 C 233.34375 439.601562 238.996094 442.46875 244.945312 444.613281 C 250.675781 446.683594 256.632812 448.007812 262.6875 448.675781 C 266.703125 449.128906 270.742188 449.296875 274.78125 449.300781 C 275.242188 449.300781 275.242188 448.585938 274.78125 448.585938 C 268.070312 448.578125 261.34375 448.097656 254.773438 446.691406 C 248.917969 445.429688 243.265625 443.4375 237.851562 440.902344 C 234.566406 439.363281 231.378906 437.644531 228.226562 435.839844 C 227.828125 435.613281 227.472656 436.234375 227.871094 436.460938 " fill-opacity="1" fill-rule="nonzero"/><path fill="#fcfcfc" d="M 307.042969 447.859375 C 313.894531 448.191406 320.703125 446.695312 326.789062 443.542969 C 327.199219 443.328125 326.835938 442.714844 326.429688 442.921875 C 320.453125 446.023438 313.769531 447.472656 307.042969 447.144531 C 306.585938 447.125 306.585938 447.835938 307.042969 447.859375 " fill-opacity="1" fill-rule="nonzero"/><path fill="#515151" d="M 215.078125 376.109375 C 211.675781 378.054688 208.410156 380.199219 205.261719 382.488281 C 205.351562 382.148438 205.433594 381.804688 205.519531 381.460938 C 208.46875 379.316406 211.535156 377.308594 214.710938 375.480469 C 215.109375 375.253906 215.480469 375.882812 215.078125 376.109375 " fill-opacity="1" fill-rule="nonzero"/><path fill="#515151" d="M 218.429688 382.523438 C 213.023438 385.210938 208.007812 388.445312 203.429688 392.277344 C 203.460938 391.9375 203.519531 391.59375 203.574219 391.246094 C 208.007812 387.585938 212.847656 384.46875 218.058594 381.886719 C 218.488281 381.6875 218.828125 382.320312 218.429688 382.523438 " fill-opacity="1" fill-rule="nonzero"/><path fill="#515151" d="M 218.804688 390.902344 C 212.789062 393.421875 207.355469 396.855469 202.570312 401.144531 C 202.601562 400.832031 202.601562 400.492188 202.628906 400.175781 C 207.355469 395.996094 212.703125 392.679688 218.628906 390.214844 C 219.03125 390.042969 219.230469 390.734375 218.804688 390.902344 " fill-opacity="1" fill-rule="nonzero"/><path fill="#515151" d="M 219.859375 396.914062 C 213.222656 399.515625 207.441406 403.523438 202.6875 408.671875 C 202.660156 408.386719 202.628906 408.074219 202.628906 407.757812 C 207.296875 402.722656 213.078125 398.828125 219.691406 396.199219 C 220.117188 396.054688 220.292969 396.742188 219.859375 396.914062 " fill-opacity="1" fill-rule="nonzero"/><path fill="#515151" d="M 220.234375 404.152344 C 214.394531 407.785156 209.128906 412.078125 204.40625 417 C 204.324219 416.773438 204.230469 416.546875 204.148438 416.289062 C 208.8125 411.417969 214.074219 407.15625 219.890625 403.550781 C 220.257812 403.289062 220.632812 403.925781 220.234375 404.152344 " fill-opacity="1" fill-rule="nonzero"/><path fill="#ffffff" d="M 536.25 529.113281 C 542.234375 543.148438 548.21875 557.1875 554.195312 571.222656 C 554.382812 571.65625 555.007812 571.28125 554.828125 570.855469 C 548.851562 556.816406 542.867188 542.78125 536.886719 528.738281 C 536.699219 528.308594 536.070312 528.679688 536.25 529.113281 " fill-opacity="1" fill-rule="nonzero"/><path fill="#ffffff" d="M 519.960938 529.007812 C 518.703125 527.546875 518.226562 525.574219 517.988281 523.660156 C 517.753906 521.746094 517.714844 519.792969 517.171875 517.945312 C 516.628906 516.09375 515.457031 514.304688 513.660156 513.605469 C 516.5 512.628906 519.824219 513.242188 522.132812 515.15625 C 524.441406 517.078125 525.652344 520.238281 525.210938 523.207031 C 525.011719 524.589844 524.472656 525.941406 524.578125 527.332031 C 524.6875 528.730469 525.773438 530.21875 527.164062 530.050781 C 524.460938 530.371094 522.09375 531.496094 519.960938 529.007812 " fill-opacity="1" fill-rule="nonzero"/><path fill="#fcfcfc" d="M 315.121094 457.910156 C 315.609375 457.910156 315.257812 457.617188 314.949219 457.617188 C 314.464844 457.617188 314.8125 457.910156 315.121094 457.910156 " fill-opacity="1" fill-rule="nonzero"/><path fill="#fcfcfc" d="M 314.972656 457.933594 C 319.332031 459.609375 320.226562 465.207031 317.089844 468.449219 C 316.941406 468.601562 317.574219 468.894531 317.714844 468.746094 C 321.25 465.097656 319.65625 459.421875 315.070312 457.667969 C 314.675781 457.515625 314.578125 457.785156 314.972656 457.933594 " fill-opacity="1" fill-rule="nonzero"/><path fill="#965b3e" d="M 330.445312 312.652344 C 330.523438 312.574219 330.601562 312.496094 330.683594 312.410156 C 330.878906 312.21875 331.054688 312.023438 330.867188 311.746094 C 330.679688 311.46875 330.140625 311.324219 329.855469 311.28125 C 329.3125 311.191406 328.738281 311.175781 328.199219 311.273438 C 328.03125 311.3125 327.859375 311.34375 327.691406 311.382812 C 327.417969 311.453125 327.167969 311.570312 326.941406 311.734375 C 326.855469 311.808594 326.777344 311.886719 326.699219 311.964844 C 326.5 312.167969 326.324219 312.359375 326.511719 312.636719 C 326.699219 312.917969 327.238281 313.058594 327.527344 313.105469 C 328.066406 313.195312 328.640625 313.207031 329.183594 313.109375 C 329.351562 313.070312 329.519531 313.03125 329.6875 313 C 329.960938 312.929688 330.210938 312.8125 330.445312 312.652344 " fill-opacity="1" fill-rule="nonzero"/><path fill="#965b3e" d="M 322.652344 320.371094 C 323.304688 320.371094 324.921875 320.125 325.167969 319.367188 C 325.425781 318.546875 323.9375 318.554688 323.519531 318.554688 C 322.863281 318.554688 321.25 318.800781 321.003906 319.5625 C 320.742188 320.378906 322.230469 320.371094 322.652344 320.371094 " fill-opacity="1" fill-rule="nonzero"/><path fill="#965b3e" d="M 329.300781 318.339844 C 329.214844 318.417969 329.140625 318.503906 329.0625 318.582031 C 328.867188 318.773438 328.738281 319.019531 328.9375 319.265625 C 329.144531 319.523438 329.695312 319.613281 329.984375 319.632812 C 330.535156 319.671875 331.105469 319.632812 331.636719 319.484375 C 332.050781 319.375 332.539062 319.234375 332.851562 318.917969 C 332.929688 318.839844 333.011719 318.761719 333.089844 318.683594 C 333.285156 318.484375 333.414062 318.238281 333.214844 318 C 333 317.738281 332.457031 317.648438 332.164062 317.625 C 331.617188 317.585938 331.046875 317.625 330.515625 317.773438 C 330.097656 317.886719 329.609375 318.023438 329.300781 318.339844 " fill-opacity="1" fill-rule="nonzero"/></svg>