<svg xmlns="http://www.w3.org/2000/svg" xmlns:xlink="http://www.w3.org/1999/xlink" width="1080" zoomAndPan="magnify" viewBox="0 0 810 809.999993" height="1080" preserveAspectRatio="xMidYMid meet" version="1.0"><defs><clipPath id="2b976d78e4"><path d="M 22.339844 760 L 787.339844 760 L 787.339844 784.667969 L 22.339844 784.667969 Z M 22.339844 760 " clip-rule="nonzero"/></clipPath></defs><path fill="#a3654a" d="M 322.558594 211.074219 C 322.558594 211.074219 297.050781 189.179688 304.335938 145.398438 C 311.625 101.613281 337.144531 76.082031 366.304688 72.433594 C 395.460938 68.78125 384.527344 79.726562 395.460938 76.082031 C 406.402344 72.433594 417.335938 68.78125 431.914062 79.726562 C 446.496094 90.671875 472.015625 101.613281 479.296875 119.855469 C 486.589844 138.097656 475.65625 138.097656 490.238281 167.292969 C 504.816406 196.476562 501.171875 203.777344 475.65625 229.308594 C 450.140625 254.851562 428.269531 273.089844 428.269531 273.089844 L 399.113281 211.074219 L 322.558594 211.074219 " fill-opacity="1" fill-rule="nonzero"/><path fill="#f6b592" d="M 446.496094 375.246094 L 355.367188 378.898438 L 355.367188 269.445312 L 439.203125 218.367188 L 442.855469 320.527344 L 446.496094 375.246094 " fill-opacity="1" fill-rule="nonzero"/><path fill="#e57c5c" d="M 421.566406 257.949219 C 418.5 268.3125 402.753906 287.6875 380.886719 302.285156 C 371.261719 308.699219 362.332031 309.46875 355.367188 308.300781 L 355.367188 287.6875 L 377.238281 265.792969 C 377.238281 265.792969 424.628906 247.550781 421.566406 257.949219 " fill-opacity="1" fill-rule="nonzero"/><path fill="#5faad3" d="M 343.699219 350.316406 C 343.699219 350.316406 395.460938 393.488281 459.25 350.316406 L 468.363281 569.222656 L 293.402344 539.425781 L 343.699219 350.316406 " fill-opacity="1" fill-rule="nonzero"/><path fill="#f6b592" d="M 333.496094 134.453125 C 330.3125 147.214844 315.269531 189.179688 318.917969 225.664062 C 322.558594 262.148438 340.785156 280.390625 348.078125 284.035156 C 355.367188 287.6875 380.886719 294.984375 406.402344 273.089844 C 431.914062 251.203125 442.855469 225.664062 442.855469 225.664062 C 442.855469 225.664062 442.855469 185.535156 435.5625 170.9375 C 428.269531 156.347656 410.046875 119.855469 399.113281 119.855469 C 388.175781 119.855469 337.144531 119.855469 333.496094 134.453125 " fill-opacity="1" fill-rule="nonzero"/><path fill="#e57c5c" d="M 348.148438 197.601562 C 348.898438 201.789062 349.226562 205.960938 349.4375 210.125 C 349.621094 214.296875 349.648438 218.464844 349.53125 222.625 L 349.417969 225.742188 L 349.246094 228.863281 C 349.175781 229.902344 349.117188 230.941406 349.023438 231.972656 L 348.964844 232.660156 C 348.957031 232.710938 348.953125 232.769531 348.957031 232.808594 C 348.957031 232.863281 348.957031 232.910156 348.964844 232.957031 C 348.984375 233.132812 349.058594 233.335938 349.246094 233.566406 C 349.636719 234.046875 350.410156 234.519531 351.265625 234.890625 C 352.121094 235.257812 353.074219 235.5625 354.046875 235.832031 C 355.019531 236.105469 356.027344 236.332031 357.039062 236.566406 C 358.058594 236.804688 359.089844 237.015625 360.121094 237.277344 C 359.078125 237.484375 358.03125 237.628906 356.972656 237.734375 C 355.90625 237.84375 354.84375 237.890625 353.757812 237.871094 C 352.671875 237.851562 351.574219 237.765625 350.445312 237.523438 C 349.878906 237.410156 349.308594 237.234375 348.726562 237.003906 C 348.148438 236.757812 347.550781 236.449219 346.984375 235.96875 C 346.421875 235.488281 345.886719 234.8125 345.597656 233.988281 C 345.519531 233.785156 345.472656 233.582031 345.433594 233.371094 C 345.386719 233.160156 345.367188 232.957031 345.355469 232.75 L 345.34375 232.453125 L 345.335938 232.265625 L 345.324219 231.871094 C 345.289062 230.828125 345.289062 229.789062 345.277344 228.75 L 345.277344 225.625 L 345.34375 222.503906 C 345.460938 218.34375 345.722656 214.1875 346.152344 210.035156 C 346.589844 205.886719 347.164062 201.734375 348.148438 197.601562 " fill-opacity="1" fill-rule="nonzero"/><path fill="#a3654a" d="M 369.953125 174.589844 C 370.15625 174.015625 370.445312 173.496094 370.773438 173.03125 C 371.089844 172.554688 371.457031 172.128906 371.839844 171.71875 C 372.621094 170.925781 373.503906 170.238281 374.457031 169.695312 C 376.367188 168.589844 378.585938 167.988281 380.847656 167.9375 C 381.976562 167.917969 383.113281 168.042969 384.226562 168.296875 C 385.324219 168.574219 386.402344 168.984375 387.386719 169.542969 C 389.339844 170.695312 391.003906 172.324219 391.820312 174.589844 C 389.421875 174.726562 387.578125 174.65625 385.851562 174.695312 L 380.976562 174.761719 C 379.386719 174.792969 377.761719 174.828125 375.988281 174.820312 C 374.1875 174.808594 372.3125 174.800781 369.953125 174.589844 " fill-opacity="1" fill-rule="nonzero"/><path fill="#a3654a" d="M 340.773438 174.570312 C 338.597656 174.648438 336.933594 174.492188 335.402344 174.386719 C 333.894531 174.253906 332.613281 174.136719 331.496094 174.078125 C 330.378906 174.035156 329.449219 173.976562 328.207031 174.109375 C 326.9375 174.214844 325.441406 174.675781 323.316406 175.28125 C 323.171875 174.179688 323.324219 173.136719 323.703125 172.148438 C 324.066406 171.15625 324.695312 170.234375 325.519531 169.464844 C 327.15625 167.878906 329.648438 167.121094 331.863281 167.257812 C 334.097656 167.398438 336.078125 168.253906 337.609375 169.503906 C 338.386719 170.132812 339.042969 170.878906 339.59375 171.707031 C 340.128906 172.550781 340.589844 173.464844 340.773438 174.570312 " fill-opacity="1" fill-rule="nonzero"/><path fill="#e57c5c" d="M 359.011719 254.851562 C 361.640625 254.433594 364.140625 254.125 366.578125 253.71875 C 369.011719 253.316406 371.386719 252.847656 373.621094 252.152344 C 375.871094 251.46875 377.953125 250.53125 379.855469 249.230469 C 380.789062 248.558594 381.660156 247.789062 382.496094 246.90625 C 383.339844 246.023438 384.046875 245.003906 384.835938 243.90625 C 384.84375 245.242188 384.605469 246.605469 384.089844 247.886719 C 383.570312 249.171875 382.804688 250.382812 381.859375 251.449219 C 379.933594 253.539062 377.375 255 374.746094 255.785156 C 372.109375 256.605469 369.378906 256.851562 366.71875 256.699219 C 365.390625 256.621094 364.074219 256.4375 362.777344 256.140625 C 361.488281 255.835938 360.214844 255.453125 359.011719 254.851562 " fill-opacity="1" fill-rule="nonzero"/><path fill="#a3654a" d="M 351.726562 130.808594 C 366.597656 132.933594 377.238281 116.210938 384.527344 130.808594 C 391.820312 145.398438 395.460938 152.695312 410.046875 156.347656 C 424.628906 159.992188 431.914062 198.300781 446.496094 201.039062 C 461.074219 203.777344 420.980469 127.15625 420.980469 127.15625 L 406.402344 108.914062 L 366.304688 108.914062 L 340.785156 116.210938 L 322.558594 149.050781 C 322.558594 149.050781 318.550781 189.410156 320.554688 187.46875 C 322.558594 185.535156 326.210938 127.15625 351.726562 130.808594 " fill-opacity="1" fill-rule="nonzero"/><path fill="#a3654a" d="M 416.160156 84.339844 C 413.8125 72.726562 413.183594 59.785156 415.777344 48.199219 C 417.496094 40.550781 421.070312 32.792969 428.324219 29.015625 C 432.242188 26.980469 436.484375 26.585938 440.816406 26.625 C 446.34375 26.679688 451.886719 25.703125 457.28125 27.34375 C 466.976562 30.296875 473.183594 39.144531 482.703125 42.441406 C 485.734375 43.484375 488.910156 44.203125 491.691406 45.808594 C 497.511719 49.160156 497.523438 55.109375 496.792969 61.070312 C 494.527344 79.535156 470.414062 117.664062 441.558594 100.429688 C 412.695312 83.195312 416.160156 84.339844 416.160156 84.339844 " fill-opacity="1" fill-rule="nonzero"/><path fill="#8e4d36" d="M 430.09375 116.210938 C 431.714844 116.617188 433.28125 117.242188 434.800781 117.972656 C 436.324219 118.699219 437.792969 119.566406 439.203125 120.5625 C 441.992188 122.566406 444.601562 125.15625 446.285156 128.648438 C 447.101562 130.394531 447.652344 132.359375 447.753906 134.402344 C 447.859375 136.425781 447.507812 138.632812 446.632812 140.554688 C 445.800781 142.507812 444.53125 144.113281 443.394531 145.421875 C 442.835938 146.074219 442.289062 146.660156 441.933594 147.113281 L 441.730469 147.402344 C 441.695312 147.464844 441.617188 147.5625 441.636719 147.5625 C 441.578125 147.648438 441.710938 147.464844 441.703125 147.195312 C 441.695312 146.878906 441.625 146.632812 441.566406 146.582031 C 441.566406 146.570312 441.585938 146.582031 441.585938 146.601562 C 441.636719 146.652344 441.683594 146.714844 441.730469 146.773438 C 442.019531 147.070312 442.511719 147.457031 443.066406 147.832031 C 443.335938 148.023438 443.648438 148.214844 443.9375 148.40625 L 444.890625 148.96875 L 446.957031 150.136719 C 447.691406 150.5625 448.4375 150.964844 449.152344 151.425781 C 449.882812 151.886719 450.597656 152.351562 451.308594 152.832031 L 453.398438 154.355469 L 455.398438 156.023438 C 457.984375 158.355469 460.355469 161.125 461.828125 164.402344 C 463.316406 167.667969 463.683594 171.34375 462.902344 174.589844 C 462.507812 172.957031 462 171.425781 461.328125 170.015625 L 461.078125 169.488281 L 460.804688 168.984375 C 460.601562 168.652344 460.449219 168.3125 460.21875 168.003906 L 459.585938 167.066406 L 458.882812 166.1875 C 456.96875 163.890625 454.601562 162.039062 452.050781 160.402344 L 450.101562 159.222656 L 448.085938 158.105469 L 446.015625 157.058594 C 445.328125 156.710938 444.609375 156.394531 443.914062 156.050781 L 441.65625 154.964844 L 440.472656 154.339844 C 440.078125 154.101562 439.683594 153.886719 439.277344 153.628906 C 438.476562 153.109375 437.648438 152.539062 436.773438 151.695312 C 436.546875 151.453125 436.324219 151.203125 436.109375 150.953125 C 435.878906 150.640625 435.65625 150.324219 435.445312 149.964844 C 435.339844 149.761719 435.242188 149.550781 435.148438 149.332031 C 435.101562 149.226562 435.050781 149.121094 435.011719 149.011719 L 434.90625 148.628906 C 434.839844 148.371094 434.773438 148.113281 434.742188 147.851562 C 434.714844 147.574219 434.703125 147.300781 434.703125 147.023438 C 434.734375 145.941406 435.082031 144.949219 435.4375 144.332031 C 435.613281 143.957031 435.785156 143.726562 435.96875 143.441406 C 436.148438 143.1875 436.3125 142.976562 436.488281 142.75 C 437.160156 141.941406 437.746094 141.351562 438.269531 140.789062 C 439.304688 139.691406 440.097656 138.738281 440.636719 137.722656 C 441.183594 136.71875 441.480469 135.644531 441.589844 134.421875 C 441.664062 133.203125 441.539062 131.9375 441.175781 130.65625 C 440.808594 129.367188 440.222656 128.078125 439.496094 126.800781 C 438.75 125.53125 437.863281 124.285156 436.878906 123.082031 C 434.90625 120.667969 432.597656 118.402344 430.09375 116.210938 " fill-opacity="1" fill-rule="nonzero"/><path fill="#8e4d36" d="M 362.378906 107.203125 C 363.140625 105.378906 364.140625 103.753906 365.191406 102.175781 C 366.257812 100.609375 367.425781 99.140625 368.65625 97.726562 C 371.128906 94.914062 373.917969 92.394531 376.972656 90.175781 C 380.03125 87.980469 383.378906 86.058594 387.117188 84.8125 C 388.992188 84.207031 390.964844 83.753906 393.023438 83.703125 L 393.785156 83.695312 C 394.046875 83.707031 394.304688 83.722656 394.566406 83.746094 C 394.824219 83.773438 395.074219 83.792969 395.332031 83.832031 C 395.59375 83.878906 395.84375 83.9375 396.101562 84.003906 C 397.097656 84.214844 398.074219 84.695312 398.828125 85.3125 C 396.855469 85.523438 395.335938 86.234375 393.839844 87.050781 C 392.351562 87.867188 390.933594 88.800781 389.519531 89.777344 C 386.710938 91.742188 383.917969 93.808594 381.0625 95.871094 C 378.203125 97.921875 375.289062 99.96875 372.226562 101.898438 C 369.148438 103.820312 365.992188 105.695312 362.378906 107.203125 " fill-opacity="1" fill-rule="nonzero"/><path fill="#f2f7f9" d="M 661.554688 718.1875 C 661.554688 718.1875 625.078125 699.957031 584.976562 707.261719 L 574.804688 776.566406 L 227.808594 780.21875 L 213.21875 484.707031 C 213.082031 481.835938 217.316406 476.03125 218.472656 473.511719 C 222.765625 464.4375 226.996094 455.355469 231.15625 446.207031 C 238.585938 429.964844 244.523438 410.789062 255.292969 396.253906 C 262.453125 386.558594 273.089844 378.03125 282.363281 370.179688 C 293.617188 360.625 305.957031 350.523438 319.253906 342.195312 C 326.753906 337.558594 334.460938 333.464844 342.5 330.390625 C 346.730469 328.6875 351.03125 327.316406 355.386719 326.296875 L 420.984375 561.347656 L 442.878906 320.492188 C 442.878906 320.492188 467.285156 322.066406 495.316406 332.03125 C 510.652344 337.484375 527.089844 345.410156 541.273438 357.011719 C 581.367188 389.835938 649.816406 511.1875 664.414062 547.699219 C 679.003906 584.140625 672.460938 689.039062 661.554688 718.1875 " fill-opacity="1" fill-rule="nonzero"/><path stroke-linecap="round" transform="matrix(0.168317, 0, 0, -0.16847, 22.338192, 784.664405)" fill="none" stroke-linejoin="round" d="M 3287.661915 1464.56462 C 3287.661915 1464.56462 3100.07391 1411.652648 3150.040132 1234.367397 C 3200.006354 1057.105334 3358.329424 655.141287 3358.329424 655.141287 " stroke="#cedff4" stroke-width="39.382999" stroke-opacity="1" stroke-miterlimit="10"/><path stroke-linecap="round" transform="matrix(0.168317, 0, 0, -0.16847, 22.338192, 784.664405)" fill="none" stroke-linejoin="round" d="M 3088.330803 1453.342274 C 3088.330803 1453.342274 3213.350794 1488.609193 3308.525656 1470.40766 " stroke="#cedff4" stroke-width="40.511002" stroke-opacity="1" stroke-miterlimit="10"/><path fill="#c0def2" d="M 415.84375 566.847656 L 415.84375 621.515625 L 337.355469 460.835938 C 336.269531 458.617188 336.097656 456.058594 336.878906 453.714844 L 342.957031 435.46875 C 342.957031 435.46875 317.453125 417.246094 317.453125 413.558594 C 317.453125 410.625 319.304688 362.90625 318.351562 345.160156 C 325.855469 340.519531 329.320312 338.960938 337.359375 335.894531 L 350.253906 333.300781 L 415.84375 566.847656 " fill-opacity="1" fill-rule="nonzero"/><path fill="#c0def2" d="M 492.632812 401.246094 L 474.355469 423.15625 L 483.347656 434.382812 C 486.828125 438.726562 487.800781 444.570312 485.914062 449.808594 L 426.257812 615.617188 L 452.539062 324.601562 C 452.539062 324.601562 469.265625 322.785156 497.292969 332.746094 L 492.632812 401.246094 " fill-opacity="1" fill-rule="nonzero"/><path fill="#545454" d="M 387.183594 198.003906 C 387.183594 201.183594 385.46875 203.761719 383.351562 203.761719 C 381.234375 203.761719 379.511719 201.183594 379.511719 198.003906 C 379.511719 194.824219 381.234375 192.246094 383.351562 192.246094 C 385.46875 192.246094 387.183594 194.824219 387.183594 198.003906 " fill-opacity="1" fill-rule="nonzero"/><path fill="#545454" d="M 341.167969 198.265625 C 341.167969 201.445312 339.449219 204.027344 337.332031 204.027344 C 335.21875 204.027344 333.496094 201.445312 333.496094 198.265625 C 333.496094 195.089844 335.21875 192.507812 337.332031 192.507812 C 339.449219 192.507812 341.167969 195.089844 341.167969 198.265625 " fill-opacity="1" fill-rule="nonzero"/><path fill="#f6b592" d="M 435.5625 203.777344 C 438.574219 200.253906 447.113281 198.308594 451.386719 198.253906 C 463.316406 198.109375 467.988281 211.507812 467.738281 221.722656 C 467.304688 239.4375 437.996094 253.644531 424.628906 240.261719 C 413.707031 229.328125 435.484375 203.859375 435.5625 203.777344 " fill-opacity="1" fill-rule="nonzero"/><path fill="#f2f7f9" d="M 481.25 399.199219 L 464.695312 419.046875 L 476.082031 433.269531 C 478.074219 435.757812 478.632812 439.09375 477.554688 442.085938 L 416.601562 611.511719 L 442.878906 320.492188 C 442.878906 320.492188 467.285156 322.066406 495.316406 332.03125 L 483.472656 394.5 C 483.144531 396.234375 482.382812 397.84375 481.25 399.199219 " fill-opacity="1" fill-rule="nonzero"/><path fill="#f2f7f9" d="M 420.984375 561.347656 L 420.984375 616.011719 L 342.488281 455.328125 C 341.402344 453.117188 341.238281 450.5625 342.015625 448.222656 L 348.097656 429.964844 C 348.097656 429.964844 322.59375 411.742188 322.59375 408.058594 C 322.59375 405.125 320.207031 359.945312 319.253906 342.195312 C 326.753906 337.558594 334.460938 333.464844 342.5 330.390625 L 355.386719 327.796875 L 420.984375 561.347656 " fill-opacity="1" fill-rule="nonzero"/><path fill="#d89371" d="M 453.789062 765.617188 C 453.789062 765.617188 275.203125 772.921875 275.203125 765.617188 C 275.203125 758.316406 293.414062 740.09375 304.320312 740.09375 C 315.296875 740.09375 253.3125 725.484375 235.109375 714.566406 C 216.835938 703.578125 202.246094 692.660156 202.246094 692.660156 L 202.246094 769.300781 C 202.246094 769.300781 133.03125 776.605469 136.648438 765.617188 C 140.332031 754.699219 158.535156 751.011719 162.144531 743.707031 C 165.761719 736.613281 112.984375 570.699219 107.804688 523.539062 C 107.667969 522.714844 107.601562 521.964844 107.527344 521.214844 C 107.054688 515.410156 106.167969 509.207031 105.003906 502.855469 C 97.507812 461.160156 78.347656 411.742188 78.347656 411.742188 C 77.460938 409.421875 80.257812 403.417969 80.941406 401.234375 C 86.667969 383.078125 96.621094 363.972656 112.984375 353.113281 C 130.785156 341.382812 151.921875 333.121094 172.035156 326.226562 C 178.511719 323.976562 185.949219 321.449219 193.238281 320.429688 C 197.539062 319.742188 201.832031 319.675781 205.921875 320.492188 C 211.039062 321.519531 213.902344 323.769531 215.265625 326.566406 C 219.425781 335.03125 215.335938 347.046875 213.21875 355.574219 C 209.335938 371.269531 204.015625 387.175781 195.015625 400.753906 C 188.878906 410.039062 195.699219 440.066406 208.859375 458.019531 C 211.3125 461.289062 213.96875 464.226562 216.835938 466.476562 C 219.628906 468.734375 222.628906 470.984375 225.765625 473.234375 C 243.015625 485.726562 265.117188 498.964844 289.726562 517.53125 C 303.15625 527.558594 333.5 539.234375 365.210938 555.207031 C 402.511719 573.972656 441.652344 598.816406 457.40625 634.308594 C 457.738281 635.125 458.152344 635.941406 458.488281 636.761719 C 485.769531 701.597656 453.789062 765.617188 453.789062 765.617188 " fill-opacity="1" fill-rule="nonzero"/><path fill="#965b3e" d="M 85.707031 481.382812 C 84.300781 480.539062 82.972656 479.28125 81.78125 477.734375 C 81.539062 477.527344 81.394531 477.316406 81.253906 477.109375 C 79.539062 474.867188 77.960938 471.992188 76.601562 468.660156 C 76.496094 468.417969 76.351562 468.136719 76.246094 467.859375 C 74.738281 464.035156 73.445312 459.691406 72.433594 454.992188 C 72.359375 454.675781 72.292969 454.328125 72.222656 454.011719 C 72.222656 453.941406 72.1875 453.90625 72.1875 453.835938 C 72.148438 453.625 72.082031 453.414062 72.042969 453.171875 C 71.664062 451.3125 71.347656 449.347656 71.066406 447.386719 C 71 447.101562 70.960938 446.792969 70.925781 446.476562 C 70.789062 445.457031 70.683594 444.445312 70.539062 443.421875 C 70.503906 443.21875 70.503906 443.007812 70.472656 442.757812 C 70.367188 441.882812 70.261719 441.007812 70.191406 440.132812 C 70.191406 439.785156 70.15625 439.429688 70.117188 439.082031 C 70.011719 437.890625 69.945312 436.660156 69.90625 435.433594 C 69.875 435.117188 69.875 434.769531 69.875 434.414062 C 69.839844 433.855469 69.808594 433.261719 69.808594 432.703125 C 69.769531 432.347656 69.769531 432 69.769531 431.652344 C 69.738281 429.511719 69.738281 427.375 69.808594 425.234375 C 69.808594 424.8125 69.839844 424.390625 69.839844 423.976562 C 69.90625 422.570312 69.980469 421.132812 70.117188 419.734375 C 70.15625 419.140625 70.222656 418.542969 70.261719 417.941406 C 71.9375 400.628906 77.789062 385.066406 89.382812 379.246094 C 95.226562 376.304688 103.070312 377.109375 108.851562 380.015625 C 121.179688 386.222656 127.128906 404.832031 131.855469 416.929688 C 136.832031 429.480469 141.382812 442.589844 144.046875 455.867188 C 147.6875 474.097656 103.945312 492.359375 85.707031 481.382812 " fill-opacity="1" fill-rule="nonzero"/><path fill="#e22b35" d="M 225.007812 466.726562 C 227.074219 468.265625 227.390625 471.273438 225.59375 473.128906 C 207.144531 492.195312 162.980469 529.394531 102.566406 523.492188 C 102.421875 522.617188 102.339844 521.816406 102.269531 521.011719 C 101.882812 516.246094 101.230469 511.226562 100.386719 506.078125 C 99.980469 503.578125 101.710938 501.261719 104.203125 501.113281 C 128.351562 499.675781 178.925781 492.371094 207.636719 457.394531 C 209.261719 455.40625 212.214844 455.183594 213.902344 457.105469 C 215.640625 459.078125 217.453125 460.855469 219.359375 462.351562 C 221.167969 463.8125 223.054688 465.273438 225.007812 466.726562 " fill-opacity="1" fill-rule="nonzero"/><path fill="#965b3e" d="M 305.5625 741.582031 C 305.042969 741.582031 304.519531 741.34375 304.175781 740.898438 C 300.488281 736.085938 295.964844 731.40625 291.585938 726.886719 C 279.371094 714.246094 266.734375 701.175781 267.476562 681.800781 C 267.554688 679.605469 267.777344 677.40625 268.132812 675.253906 C 271.347656 655.65625 284.789062 643.230469 304.992188 641.179688 C 323.960938 639.242188 343.246094 645.746094 356.578125 658.558594 C 357.277344 659.230469 357.300781 660.339844 356.632812 661.039062 C 355.960938 661.738281 354.855469 661.761719 354.160156 661.09375 C 341.546875 648.976562 323.304688 642.835938 305.347656 644.667969 C 286.5625 646.582031 274.570312 657.644531 271.585938 675.820312 C 271.257812 677.828125 271.050781 679.886719 270.972656 681.933594 C 270.289062 699.8125 282.402344 712.335938 294.105469 724.445312 C 298.546875 729.046875 303.136719 733.789062 306.953125 738.757812 C 307.542969 739.527344 307.398438 740.628906 306.628906 741.214844 C 306.3125 741.464844 305.9375 741.582031 305.5625 741.582031 " fill-opacity="1" fill-rule="nonzero"/><path fill="#965b3e" d="M 223.523438 540.070312 C 230.589844 531.8125 247.625 537.050781 244.613281 549.117188 C 241.605469 561.179688 250.644531 567.210938 259.683594 567.210938 C 268.726562 567.210938 256.667969 579.273438 247.625 579.273438 C 238.59375 579.273438 205.441406 561.179688 223.523438 540.070312 " fill-opacity="1" fill-rule="nonzero"/><path fill="#965b3e" d="M 348.078125 692.660156 C 348.078125 677.183594 377.238281 681.714844 384.527344 689.015625 C 391.820312 696.3125 399.113281 710.902344 384.527344 710.902344 C 369.953125 710.902344 348.078125 718.199219 348.078125 692.660156 " fill-opacity="1" fill-rule="nonzero"/><path fill="#965b3e" d="M 458.488281 636.761719 C 456.242188 636.695312 453.511719 636.011719 450.171875 634.308594 C 435.582031 627.003906 435.582031 641.605469 417.304688 641.605469 C 399.097656 641.605469 402.78125 634.308594 399.097656 623.316406 C 395.488281 612.398438 373.601562 619.699219 355.386719 616.011719 C 337.117188 612.398438 340.800781 590.492188 362.6875 579.566406 C 373.667969 574.039062 370.800781 563.9375 365.210938 555.207031 C 402.511719 573.972656 441.652344 598.816406 457.40625 634.308594 C 457.738281 635.125 458.152344 635.941406 458.488281 636.761719 " fill-opacity="1" fill-rule="nonzero"/><path fill="#6b3f2c" d="M 165.820312 389.84375 C 168.683594 389.855469 171.429688 389.96875 174.152344 390.007812 C 176.867188 390.039062 179.542969 390.027344 182.140625 389.761719 C 184.730469 389.507812 187.25 389.011719 189.484375 387.941406 C 190.609375 387.414062 191.65625 386.714844 192.5625 385.808594 C 193.480469 384.898438 194.25 383.792969 194.980469 382.542969 C 194.996094 383.980469 194.644531 385.453125 193.957031 386.816406 C 193.265625 388.183594 192.179688 389.367188 190.945312 390.285156 C 189.695312 391.210938 188.289062 391.875 186.855469 392.355469 C 185.421875 392.84375 183.949219 393.09375 182.488281 393.25 C 179.550781 393.546875 176.652344 393.289062 173.851562 392.738281 C 171.054688 392.144531 168.328125 391.265625 165.820312 389.84375 " fill-opacity="1" fill-rule="nonzero"/><path fill="#6b3f2c" d="M 215.265625 326.566406 C 211.515625 328.273438 200.945312 333.679688 196.308594 332.117188 C 191.601562 330.542969 194.808594 323.289062 193.238281 320.429688 C 197.539062 319.742188 201.832031 319.675781 205.921875 320.492188 C 211.039062 321.519531 213.902344 323.769531 215.265625 326.566406 " fill-opacity="1" fill-rule="nonzero"/><path fill="#965b3e" d="M 202.273438 694.410156 C 201.304688 694.410156 200.523438 693.628906 200.523438 692.660156 L 200.523438 652.53125 C 200.523438 651.5625 201.304688 650.78125 202.273438 650.78125 C 203.238281 650.78125 204.023438 651.5625 204.023438 652.53125 L 204.023438 692.660156 C 204.023438 693.628906 203.238281 694.410156 202.273438 694.410156 " fill-opacity="1" fill-rule="nonzero"/><path fill="#6b3f2c" d="M 133.644531 356.445312 C 134.195312 354.464844 137.765625 353.734375 141.625 354.804688 C 145.484375 355.878906 148.167969 358.351562 147.617188 360.335938 C 147.0625 362.320312 143.488281 363.050781 139.632812 361.980469 C 135.773438 360.90625 133.09375 358.433594 133.644531 356.445312 " fill-opacity="1" fill-rule="nonzero"/><path fill="#d89371" d="M 437.746094 725.675781 C 437.746094 725.675781 491.960938 743.070312 517.425781 717.101562 C 542.898438 691.132812 544.804688 632.625 528.320312 613.839844 C 528.320312 613.839844 532.238281 687.949219 503.324219 704.734375 C 474.402344 721.53125 440.683594 695.042969 440.683594 695.042969 L 437.746094 725.675781 " fill-opacity="1" fill-rule="nonzero"/><path fill="#f6b592" d="M 115.78125 613.644531 C 118.339844 620.71875 125.414062 625.332031 132.90625 624.878906 C 140.871094 624.398438 154.710938 614.242188 154.921875 605.523438 C 155.03125 600.84375 145.300781 589.15625 140.304688 594.15625 C 140.3125 594.152344 162.179688 572.261719 154.886719 564.964844 C 147.597656 557.667969 140.304688 561.320312 133.019531 561.320312 C 125.726562 561.320312 151.246094 543.078125 136.664062 535.78125 C 122.078125 528.480469 111.574219 545.527344 111.574219 545.527344 C 111.574219 545.527344 129.371094 521.183594 107.503906 521.183594 C 90.820312 521.183594 103.820312 580.582031 115.78125 613.644531 " fill-opacity="1" fill-rule="nonzero"/><g clip-path="url(#2b976d78e4)"><path fill="#4995aa" d="M 787.332031 766.851562 C 787.398438 770.605469 784.742188 773.675781 781.402344 773.742188 L 762.445312 774.019531 L 34.882812 784.59375 L 28.472656 784.667969 C 28.40625 784.667969 28.40625 784.667969 28.335938 784.667969 C 25.066406 784.667969 22.402344 781.660156 22.339844 777.972656 C 22.339844 775.242188 23.699219 772.925781 25.613281 771.761719 C 26.429688 771.289062 27.316406 771.011719 28.269531 771.011719 L 776.628906 760.167969 L 781.261719 760.09375 C 784.675781 760.167969 787.265625 763.027344 787.332031 766.851562 " fill-opacity="1" fill-rule="nonzero"/></g><path fill="#e57c5c" d="M 446.496094 208.660156 C 446.496094 208.660156 461.164062 206.324219 461.777344 220.320312 " fill-opacity="1" fill-rule="nonzero"/><path fill="#f6b592" d="M 667.300781 698.839844 C 667.300781 698.839844 650.746094 766.457031 636.214844 765.261719 C 621.683594 764.054688 634.242188 744.808594 626.648438 748.234375 C 622.011719 760.027344 621.347656 768.089844 610.449219 767.1875 C 599.554688 766.285156 605.179688 742.40625 605.179688 742.40625 C 605.179688 742.40625 588.324219 769.414062 582.058594 756.726562 C 575.792969 744.03125 587.683594 732.835938 587.683594 732.835938 C 587.683594 732.835938 571.820312 747.761719 568.855469 739.398438 C 565.890625 731.039062 590.527344 713.230469 590.105469 710.949219 C 589.683594 708.652344 563.917969 710.578125 572.183594 699.089844 C 580.445312 687.597656 610.507812 677.914062 610.507812 677.914062 L 667.300781 698.839844 " fill-opacity="1" fill-rule="nonzero"/><path fill="#ffdd5a" d="M 161.792969 529.289062 C 161.792969 535.179688 157.023438 539.957031 151.140625 539.957031 C 145.253906 539.957031 140.480469 535.179688 140.480469 529.289062 C 140.480469 523.402344 145.253906 518.625 151.140625 518.625 C 157.023438 518.625 161.792969 523.402344 161.792969 529.289062 " fill-opacity="1" fill-rule="nonzero"/><path fill="#4a7493" d="M 355.367188 312.953125 C 355.238281 312.914062 355.105469 312.878906 354.929688 312.859375 C 354.164062 312.792969 336.800781 311.367188 322.324219 328.042969 C 301.980469 351.484375 299.6875 397.101562 315.511719 463.621094 C 315.894531 465.234375 317.332031 466.320312 318.910156 466.320312 C 319.179688 466.320312 319.457031 466.285156 319.726562 466.21875 C 321.613281 465.773438 322.769531 463.882812 322.324219 462 C 303.347656 382.222656 314.65625 347.691406 327.492188 332.78125 C 339.515625 318.796875 354.34375 319.847656 355.054688 319.90625 C 355.183594 319.921875 355.269531 319.894531 355.367188 319.886719 L 355.367188 312.953125 " fill-opacity="1" fill-rule="nonzero"/><path fill="#4a7493" d="M 442.636719 308.515625 L 442.472656 309.820312 L 442.675781 315.609375 C 450.757812 317 505.683594 329.324219 512.265625 408.375 L 519.242188 407.796875 C 511.804688 318.441406 443.328125 308.601562 442.636719 308.515625 " fill-opacity="1" fill-rule="nonzero"/><path fill="#567d9b" d="M 340.113281 476.503906 C 340.113281 485.960938 331.863281 493.628906 321.6875 493.628906 C 311.507812 493.628906 303.261719 485.960938 303.261719 476.503906 C 303.261719 467.042969 311.507812 459.382812 321.6875 459.382812 C 331.863281 459.382812 340.113281 467.042969 340.113281 476.503906 " fill-opacity="1" fill-rule="nonzero"/><path fill="#9acded" d="M 326.953125 475.183594 C 326.953125 478.097656 324.59375 480.453125 321.6875 480.453125 C 318.78125 480.453125 316.417969 478.097656 316.417969 475.183594 C 316.417969 472.28125 318.78125 469.917969 321.6875 469.917969 C 324.59375 469.917969 326.953125 472.28125 326.953125 475.183594 " fill-opacity="1" fill-rule="nonzero"/><path fill="#4a7493" d="M 495.117188 487.210938 C 494.539062 485.074219 481.082031 434.449219 496.847656 412.679688 C 501.277344 406.558594 507.558594 403.246094 515.519531 402.832031 C 556.632812 400.785156 570.617188 472.109375 571.1875 475.15625 L 566.027344 476.125 C 565.894531 475.425781 552.515625 406.1875 515.789062 408.085938 C 509.410156 408.414062 504.605469 410.925781 501.101562 415.765625 C 486.800781 435.5 500.054688 485.335938 500.1875 485.835938 L 495.117188 487.210938 " fill-opacity="1" fill-rule="nonzero"/><path fill="#416d87" d="M 574.074219 475.585938 C 574.074219 478.605469 571.628906 481.054688 568.605469 481.054688 C 565.585938 481.054688 563.140625 478.605469 563.140625 475.585938 C 563.140625 472.558594 565.585938 470.109375 568.605469 470.109375 C 571.628906 470.109375 574.074219 472.558594 574.074219 475.585938 " fill-opacity="1" fill-rule="nonzero"/><path fill="#416d87" d="M 502.757812 486.527344 C 502.757812 489.550781 500.3125 491.996094 497.292969 491.996094 C 494.277344 491.996094 491.824219 489.550781 491.824219 486.527344 C 491.824219 483.507812 494.277344 481.054688 497.292969 481.054688 C 500.3125 481.054688 502.757812 483.507812 502.757812 486.527344 " fill-opacity="1" fill-rule="nonzero"/><path fill="#515151" d="M 100.554688 456.257812 C 93.128906 462.421875 86.824219 469.609375 81.78125 477.734375 C 81.539062 477.527344 81.394531 477.316406 81.253906 477.109375 C 86.265625 469.15625 92.5 462.105469 99.816406 456.046875 C 99.992188 455.867188 100.828125 456.011719 100.554688 456.257812 " fill-opacity="1" fill-rule="nonzero"/><path fill="#515151" d="M 94.636719 447.804688 C 87.804688 454.078125 81.78125 461.019531 76.601562 468.660156 C 76.496094 468.417969 76.351562 468.136719 76.246094 467.859375 C 81.289062 460.496094 87.171875 453.761719 93.792969 447.667969 C 94.003906 447.492188 94.773438 447.667969 94.636719 447.804688 " fill-opacity="1" fill-rule="nonzero"/><path fill="#515151" d="M 88.402344 439.851562 C 82.550781 444.410156 77.230469 449.457031 72.433594 454.992188 C 72.359375 454.675781 72.292969 454.328125 72.222656 454.011719 C 76.84375 448.714844 81.992188 443.878906 87.625 439.5 C 87.835938 439.363281 88.574219 439.710938 88.402344 439.851562 " fill-opacity="1" fill-rule="nonzero"/><path fill="#515151" d="M 81.289062 434.875 C 77.539062 437.539062 73.96875 440.375 70.539062 443.421875 C 70.503906 443.21875 70.503906 443.007812 70.472656 442.757812 C 73.726562 439.921875 77.125 437.257812 80.664062 434.738281 C 80.835938 434.59375 81.675781 434.625 81.289062 434.875 " fill-opacity="1" fill-rule="nonzero"/><path fill="#515151" d="M 75.445312 430.421875 C 73.515625 432 71.664062 433.644531 69.90625 435.433594 C 69.875 435.117188 69.875 434.769531 69.875 434.414062 C 71.378906 432.945312 72.992188 431.511719 74.640625 430.175781 C 74.84375 430 75.621094 430.28125 75.445312 430.421875 " fill-opacity="1" fill-rule="nonzero"/><path fill="#fcfcfc" d="M 112.113281 513.042969 C 121.460938 512.640625 131.027344 511.652344 140.113281 509.371094 C 142.988281 508.652344 145.855469 507.777344 148.492188 506.402344 C 148.753906 506.265625 147.953125 506.085938 147.742188 506.191406 C 142.617188 508.875 136.589844 509.902344 130.933594 510.785156 C 125.707031 511.609375 120.429688 512.148438 115.148438 512.503906 C 114.0625 512.582031 112.980469 512.648438 111.894531 512.695312 C 111.296875 512.71875 111.738281 513.054688 112.113281 513.042969 " fill-opacity="1" fill-rule="nonzero"/><path fill="#fcfcfc" d="M 152.394531 522.222656 C 158.328125 523.445312 160.402344 530.632812 156.683594 535.152344 C 156.519531 535.351562 157.332031 535.613281 157.492188 535.417969 C 161.652344 530.363281 158.675781 523.164062 152.46875 521.878906 C 151.96875 521.78125 151.890625 522.125 152.394531 522.222656 " fill-opacity="1" fill-rule="nonzero"/><path fill="#965b3e" d="M 189.871094 342.492188 C 189.972656 342.394531 190.070312 342.296875 190.167969 342.203125 C 190.40625 341.960938 190.617188 341.71875 190.390625 341.382812 C 190.160156 341.039062 189.503906 340.867188 189.15625 340.808594 C 188.492188 340.695312 187.789062 340.683594 187.125 340.800781 C 186.921875 340.847656 186.710938 340.894531 186.507812 340.941406 C 186.171875 341.027344 185.867188 341.171875 185.585938 341.363281 C 185.488281 341.460938 185.386719 341.558594 185.289062 341.65625 C 185.046875 341.894531 184.835938 342.136719 185.066406 342.480469 C 185.296875 342.816406 185.953125 342.988281 186.300781 343.046875 C 186.964844 343.15625 187.664062 343.171875 188.328125 343.050781 C 188.539062 343.007812 188.742188 342.960938 188.953125 342.914062 C 189.28125 342.828125 189.589844 342.691406 189.871094 342.492188 " fill-opacity="1" fill-rule="nonzero"/><path fill="#965b3e" d="M 180.339844 351.945312 C 181.140625 351.945312 183.113281 351.648438 183.417969 350.710938 C 183.738281 349.710938 181.917969 349.726562 181.402344 349.726562 C 180.601562 349.726562 178.621094 350.023438 178.328125 350.957031 C 178.003906 351.957031 179.828125 351.945312 180.339844 351.945312 " fill-opacity="1" fill-rule="nonzero"/><path fill="#965b3e" d="M 188.472656 349.457031 C 188.375 349.554688 188.28125 349.652344 188.183594 349.753906 C 187.941406 349.988281 187.789062 350.292969 188.03125 350.585938 C 188.289062 350.910156 188.957031 351.015625 189.3125 351.042969 C 189.984375 351.09375 190.6875 351.046875 191.332031 350.863281 C 191.84375 350.726562 192.4375 350.554688 192.816406 350.167969 C 192.917969 350.074219 193.015625 349.976562 193.113281 349.878906 C 193.351562 349.640625 193.5 349.335938 193.265625 349.035156 C 193.003906 348.71875 192.332031 348.613281 191.976562 348.585938 C 191.304688 348.535156 190.609375 348.582031 189.957031 348.757812 C 189.453125 348.902344 188.851562 349.074219 188.472656 349.457031 " fill-opacity="1" fill-rule="nonzero"/></svg>