<?xml version="1.0" encoding="UTF-8"?>
<svg xmlns="http://www.w3.org/2000/svg" viewBox="0 0 952.62 987.72">
  <defs>
    <style>
      .cls-1 {
        fill: #efafbe;
      }

      .cls-1, .cls-2, .cls-3, .cls-4, .cls-5, .cls-6, .cls-7, .cls-8, .cls-9 {
        stroke-width: 0px;
      }

      .cls-10, .cls-11 {
        stroke-width: 7px;
      }

      .cls-10, .cls-11, .cls-12, .cls-13, .cls-14, .cls-15, .cls-16, .cls-17, .cls-18, .cls-19 {
        stroke-linecap: round;
      }

      .cls-10, .cls-11, .cls-12, .cls-13, .cls-14, .cls-15, .cls-16, .cls-18, .cls-19 {
        stroke-miterlimit: 10;
      }

      .cls-10, .cls-11, .cls-12, .cls-13, .cls-15, .cls-16, .cls-17, .cls-18, .cls-19 {
        fill: none;
      }

      .cls-10, .cls-18 {
        stroke: #faf6b3;
      }

      .cls-2 {
        fill: #f59cba;
      }

      .cls-11, .cls-12, .cls-13, .cls-14, .cls-16, .cls-17 {
        stroke: #f59cba;
      }

      .cls-3 {
        fill: #76aeb7;
      }

      .cls-12 {
        stroke-width: 2px;
      }

      .cls-4, .cls-14 {
        fill: #f9bfcb;
      }

      .cls-5 {
        fill: #9bd2df;
      }

      .cls-6 {
        fill: #f8beca;
      }

      .cls-7 {
        fill: #faf6b3;
      }

      .cls-13 {
        stroke-width: 3px;
      }

      .cls-8 {
        fill: #365356;
      }

      .cls-14, .cls-17 {
        stroke-width: 5px;
      }

      .cls-15 {
        stroke: #76aeb7;
        stroke-width: 4px;
      }

      .cls-16 {
        stroke-width: 12px;
      }

      .cls-17 {
        stroke-linejoin: round;
      }

      .cls-9 {
        fill: #8bc3cc;
      }

      .cls-18 {
        stroke-width: 10px;
      }

      .cls-19 {
        stroke: #f8beca;
        stroke-width: 6px;
      }
    </style>
  </defs>
  <g id="Layer_20" data-name="Layer 20">
    <path class="cls-7" d="m421.09,237.7c.8-12.02,5.64-66.5,46.91-96.41,47.62-34.51,109.11-11.23,130.13-3.27,92.57,35.05,134.52,147.75,152.93,226.87,12.2,52.44-21.41,104.65-73.39,113.67-.38.07-.76.13-1.14.19-83.64,14.11-150.04-19.2-173.87-32.71-27.19-69.45-54.39-138.9-81.58-208.34Z"/>
    <rect class="cls-7" x="602.7" y="78.06" width="61.2" height="61.2" rx="30.6" ry="30.6"/>
  </g>
  <g id="Rosto_Fill">
    <g>
      <path class="cls-4" d="m537.23,401.19c-9.28,2.49-73.76,18.87-110.37-15.56-52.89-49.74-17.06-176.73,50.9-201.63,29.67-10.87,78.47-7.05,101.72,24,9.32,12.44,12.13,26.05,13.04,35.2"/>
      <path class="cls-4" d="m480.9,407.26v115.28h108.76v-213.35c3.48.24,9.74.19,16.43-2.87,10.97-5.01,20.01-16.65,20.07-30.03.08-16.21-13.02-33.64-29.2-33.09-15.39.52-24.13,16.99-24.52,17.74"/>
    </g>
  </g>
  <g id="Shadow_Rosto" data-name="Shadow Rosto">
    <path class="cls-1" d="m480.9,406.86c8.59,1.18,21.99,1.93,37.64-1.8,11.38-2.71,20.4-6.95,26.8-10.6-6.76,11.22-17.63,26.28-34.4,40.47-10.73,9.08-21.21,15.54-30.04,20.13v-48.2Z"/>
  </g>
  <g id="Layer_26" data-name="Layer 26">
    <path class="cls-7" d="m470.14,183.16c10.43,12.18,30.75,32.6,62.7,46.63,24.17,10.61,46.01,13.63,60.48,14.44,3.13-9.29,6.25-18.58,9.38-27.88l-47.36-40-71.2-3.2-14,10Z"/>
  </g>
  <g id="Oculos">
    <g>
      <circle class="cls-11" cx="408.02" cy="248.25" r="39.55"/>
      <circle class="cls-11" cx="506.7" cy="248.25" r="39.55"/>
      <line class="cls-11" x1="593.32" y1="240.34" x2="546.08" y2="244.84"/>
      <path class="cls-11" d="m447.42,244.84c1.33-.89,4.75-2.91,9.56-3,5.18-.09,8.86,2.12,10.17,3"/>
    </g>
  </g>
  <g id="Layer_10" data-name="Layer 10">
    <path class="cls-5" d="m828.84,735.29c-.9,82.33-1.8,164.65-2.7,246.98-182.8.8-365.6,1.6-548.4,2.4,33.48-213.53,8.54-283.51-26-302.8-5.09-2.84-12.16-5.58-14.8-12.8-14.7-40.18,128.85-160.91,288.49-176.93,34.13-3.42,98.23-9.02,168.71,24.93,1.31.63,2.61,1.27,3.9,1.91,81.45,40.8,131.8,125.22,130.81,216.31Z"/>
  </g>
  <g id="Layer_16" data-name="Layer 16">
    <path class="cls-3" d="m425.39,437.56c-.03.05-.05.1-.08.15-3.22,5.79-24,14.16-24,14.16-1.69.71-3.41,1.41-5.16,2.09-32.74,12.71-76.04,19.58-114.49,22.2-21.64,1.48-41.74,1.6-57.56.66-.16-.01-.31-.02-.46-.03-20.24-1.24-33.36-4.23-33.53-8.38-.19-4.8,16.92-11.63,81.13-21.37l120.11-16.52c17.02-.29,33.34.62,34.29,5.35.01.04.02.08.02.12,0,0,0,.02,0,.03l-.27,1.54Z"/>
  </g>
  <g id="Mao_Fill" data-name="Mao Fill">
    <g>
      <path class="cls-14" d="m591.51,256.61c1.06-.31,7.74-2.14,14.18,1.87,7.62,4.74,8.16,13.45,8.19,14.23"/>
      <path class="cls-14" d="m601.38,257.8c.7,1.93,1.67,5.44,1.2,9.8-.69,6.38-4.02,10.62-5.4,12.2"/>
    </g>
  </g>
  <g id="Mao">
    <g>
      <path class="cls-4" d="m398.94,472.79l-114.67,22.4-1.95-14.89c-.8-6.1-2.25-12.09-4.4-17.85-6.94-18.66-23.86-52.9-61.11-73.12-18.52-10.06-36.24-13.49-48.8-14.67-6.38-.58-10.55-6.33-9.6-11.47.75-4.09,4.71-7.47,9.6-7.73,10.37.64,22.35,2.04,35.46,4.8,13.11,2.76,24.63,6.31,34.37,9.9,2.83,2.5,5.67,5,8.5,7.5,2.17-6.42,6.19-14.7,13.69-22.33,7.15-7.27,14.96-11.41,21.26-13.77l-73.02-61.48c-3.97-4.75-4.38-11.31-1.33-15.72,3.84-5.54,12.69-7.04,19.11-2.06,24.16,20.58,48.33,41.16,72.49,61.74-1.79-16.75-1.44-36.61,8.93-42.18,3.21-1.72,8.66-2.77,12.67-.4,1.6.94,2.67,2.26,3.39,3.88-5.32,2.29-8.65,7.65-8.32,13.32.35,6.03,4.77,11.18,10.8,12.51.28,1.92.67,3.89,1.2,5.89,4.13,15.57,12.29,15.4,29.33,38.4,15.01,20.25,22.4,38.9,26.67,49.87,4.64,11.94,9.96,28.62,13.06,49.33l2.67,18.13Z"/>
      <path class="cls-4" d="m281.29,341.56c-6.3,2.36-14.11,6.5-21.26,13.77l-63.33-53.43s-.03-.02-.05-.04l-5.38-4.53c-4.72-4.63-5.54-11.54-2.63-15.97,3.66-5.56,13.14-7.09,19.63-1.28l73.02,61.48Z"/>
      <path class="cls-4" d="m260.03,355.33c-7.5,7.63-11.52,15.91-13.69,22.33-2.83-2.5-5.67-5-8.5-7.5-18.66-16.47-37.33-32.93-55.99-49.39-2.71-2.39-4.44-5.8-4.42-9.41.02-3.36,1.37-6.63,3.91-8.9,4.12-3.67,10.54-4,15.31-.6.02.02.03.03.05.04l63.33,53.43Z"/>
      <path class="cls-13" d="m298.54,364.33c2.45,3.21,7.51,8.93,15.86,12.93,10.67,5.11,20.47,4.44,24.53,3.93"/>
      <path class="cls-12" d="m398.94,472.79l-114.67,22.4-1.95-14.89c-.8-6.1-2.25-12.09-4.4-17.85-6.94-18.66-23.86-52.9-61.11-73.12-18.52-10.06-36.24-13.49-48.8-14.67-6.38-.58-10.55-6.33-9.6-11.47.75-4.09,4.71-7.47,9.6-7.73,10.37.64,22.35,2.04,35.46,4.8,13.11,2.76,24.63,6.31,34.37,9.9,2.83,2.5,5.67,5,8.5,7.5,2.17-6.42,6.19-14.7,13.69-22.33,7.15-7.27,14.96-11.41,21.26-13.77l-73.02-61.48c-3.97-4.75-4.38-11.31-1.33-15.72,3.84-5.54,12.69-7.04,19.11-2.06,24.16,20.58,48.33,41.16,72.49,61.74-1.79-16.75-1.44-36.61,8.93-42.18,3.21-1.72,8.66-2.77,12.67-.4,1.6.94,2.67,2.26,3.39,3.88-5.32,2.29-8.65,7.65-8.32,13.32.35,6.03,4.77,11.18,10.8,12.51.28,1.92.67,3.89,1.2,5.89,4.13,15.57,12.29,15.4,29.33,38.4,15.01,20.25,22.4,38.9,26.67,49.87,4.64,11.94,9.96,28.62,13.06,49.33l2.67,18.13Z"/>
      <path class="cls-12" d="m281.29,341.56c-6.3,2.36-14.11,6.5-21.26,13.77l-63.33-53.43s-.03-.02-.05-.04l-5.38-4.53c-4.72-4.63-5.54-11.54-2.63-15.97,3.66-5.56,13.14-7.09,19.63-1.28l73.02,61.48Z"/>
      <path class="cls-12" d="m260.03,355.33c-7.5,7.63-11.52,15.91-13.69,22.33-2.83-2.5-5.67-5-8.5-7.5-18.66-16.47-37.33-32.93-55.99-49.39-2.71-2.39-4.44-5.8-4.42-9.41.02-3.36,1.37-6.63,3.91-8.9,4.12-3.67,10.54-4,15.31-.6.02.02.03.03.05.04l63.33,53.43Z"/>
      <path class="cls-12" d="m323.53,285.34c2.52,5.62.87,15,2.48,25.83"/>
      <path class="cls-13" d="m293.48,338.58c-4.82.69-20.74,3.59-33.91,17.51-11.98,12.67-14.59,26.99-15.28,32.04"/>
    </g>
  </g>
  <g id="Layer_12" data-name="Layer 12">
    <path class="cls-5" d="m223.68,476.91l-89.54,116.42,109.2,203.3c27.53-28.62,57.46-64.63,85.47-108.9,60.5-95.64,85.59-188.05,96.86-251.73l-201.99,40.91Z"/>
  </g>
  <g id="Layer_21" data-name="Layer 21">
    <path class="cls-15" d="m421.07,452.53c-4.86,31.55-14.83,72.6-36.17,116.82-10.9,22.57-22.8,41.91-34.23,58.11"/>
  </g>
  <g id="Layer_18" data-name="Layer 18">
    <path class="cls-17" d="m461.47,320.65h-22.21c-3.71,0-6.39-3.54-5.38-7.11l17.99-63.51c2.27-6.77,3.04-8.03,3.04-8.03"/>
  </g>
  <g id="Olho">
    <rect class="cls-2" x="415.61" y="263.38" width="10.97" height="10.97" rx="5.48" ry="5.48"/>
    <rect class="cls-2" x="486.02" y="263.38" width="10.97" height="10.97" rx="5.48" ry="5.48"/>
  </g>
  <g id="Estetoscopio">
    <path class="cls-10" d="m592.51,483.8c1.02.59,2.05,1.21,3.07,1.86,2.7,1.7,5.39,3.58,8.04,5.64h.01c1.74,1.37,3.45,2.8,5.15,4.32,24.08,21.53,31.69,48.98,33.76,68.67,1.41,13.42.25,23.24,0,25.13v.02"/>
    <path class="cls-10" d="m406.75,643.06c-.18-2.78-.33-5.92-.4-9.38-.14-6.97.02-15.22.87-24.44,1.73-18.63,3.89-42.88,18.32-69.3,3.63-6.64,7.58-12.59,11.57-17.84,4.37-5.75,8.8-10.69,12.95-14.83,2.49-2.48,4.88-4.69,7.09-6.61,5.83-5.08,10.46-8.25,12.54-9.64,1.74-1.16,3.96-2.63,6.62-4.24"/>
  </g>
  <g id="Jaleco">
    <path class="cls-9" d="m643.93,492.85c1.62,1.04,4.81,2.06,6.06,5.21,3.99,9.98,11.63,35.59-2.66,59.41-10.08,16.81-25.7,23.74-31.6,26,4.31,9.99,5.8,18.3,6.4,23.6,8.08,70.85-81.39,128.92-88.8,133.6-8.85,5.59-16.39,9.45-20.8,11.6-7.67-5.81-64.21-49.94-58.88-109.95.76-8.51,2.9-18.92,8.08-30.45-5.24-6.68-10.69-15.03-15.2-25.2-13.55-30.53-10.82-59.72-7.74-75.85.4-2.11,1.62-3.95,3.33-5.15,0,0,.86-.62,1.9-.99,35.21-12.53,87.92-14.21,87.92-14.21,52.08-1.66,88.86-12.48,111.99,2.38Z"/>
    <line class="cls-15" x1="697.93" y1="750.26" x2="655.01" y2="984.79"/>
  </g>
  <g id="Layer_32" data-name="Layer 32">
    <path class="cls-1" d="m299.44,383.46c8.8,10.84,21.09,29.49,25.1,54.93,1,6.38,1.36,12.36,1.31,17.82-15.15,3.13-30.3,6.25-45.45,9.38,6.34-27.38,12.69-54.76,19.03-82.13Z"/>
  </g>
  <g id="Cachorro">
    <path id="Base" class="cls-4" d="m383.62,910.65c-32.49-1.15-71.62-6.55-113.66-21.25-11.63-4.08-22.52-8.51-32.65-13.15l-1.87-82.17c1.47,64.24,2.93,128.47,4.4,192.71H62.71c2.47-11.1,6.85-19.11,10.82-24.64,27.87-38.84,89.35-30.51,93.27-29.92-7.8-38.44-17.09-78.72-28.16-120.55-12.4-46.86-25.79-90.95-39.61-132.14l-36.33-216.59c12.51-10.47,37.88-28.68,74.61-35.58,20.36-3.83,38.02-3.02,50.82-1.32,37.18-14.74,74.36-29.48,111.53-44.22,12.52,23.29,14.17,42.88,13.86,54.78-1.39,52.83-45.45,102.72-110.87,126.71,37.45,24.86,95.31,61.62,168.95,101.63,115.01,62.49,162.38,74.92,208.55,126.05,31.54,34.94,67.52,93.42,78.15,194.55-.62.38-1.23.77-1.85,1.15-.48.03-.97.06-1.45.08-116.1,0-232.2,0-348.29,0-2.05-17.72,3.41-28.82,6.16-33.44,13.76-23.11,48.74-33.45,85.72-22.44-6.08-6.83-40.71-46.9-31.07-95.02,1.72-8.59,5.6-27.98,21.91-40.93,26.65-21.16,65.43-8.38,76.63-4.69,56.82,18.72,79.38,77.73,83.52,89.17l-165.96,31.22Z"/>
    <g>
      <path class="cls-2" d="m188.47,425.38c5.8,5.79,23.87,25.3,22.11,49.99-2.04,28.64-30.19,56.47-71.17,63.91-12.33,2.24-24.89-2.64-32.5-12.6-3.61-4.72-7.23-9.67-10.83-14.84-13.1-18.8-23.46-36.94-31.68-53.46,19.23-12.94,36.72-20.3,49.17-24.58,7.29-2.51,18.19-6.2,33.16-8.25,17.13-2.35,31.62-1.47,41.74-.16Z"/>
      <path class="cls-2" d="m244.02,402.51c6.41-3.9,16.14-9.38,28.6-14.74,15.46-6.64,23.19-9.97,26.18-7.04,5.03,4.93-1.49,28.62-18.7,34.76-11.95,4.26-26.74-.76-36.08-12.98Z"/>
      <rect class="cls-2" x="253.81" y="438.25" width="8.91" height="8.91" rx="2.7" ry="2.7"/>
      <rect class="cls-2" x="267.78" y="442.71" width="8.91" height="8.91" rx="2.7" ry="2.7"/>
      <rect class="cls-2" x="249.35" y="454.59" width="8.91" height="8.91" rx="2.7" ry="2.7"/>
    </g>
    <path class="cls-2" d="m64.54,458.47c9.33,10.15,16.69,21.94,21.71,34.78,33.93,86.66,35.8,160.33,1.27,187.14-6.08,4.72-14.24,8.73-25.47,10.56-19.8,1.27-31.19-3.97-38.02-9.31-30.01-23.44-26.63-91.5,9.85-173.94,7.86-17.77,18.23-34.32,30.52-49.38h0s.09.1.13.15Z"/>
    <path class="cls-2" d="m534.26,751.53c-13.84,2.45-23.73,4.95-30.66,6.96-5,1.45-9.98,3.1-16.54,2.19-3.07-.43-3.95-1.06-11.5-2.62-5.24-1.08-7.86-1.52-10.92-1.84-4.43-.47-9.03-.67-14.08,1.24-3.98,1.5-5.43,3.26-8.8,5.28-3.77,2.26-9.62,4.66-18.48,4.84-8.38-.19-23.38-1.76-38.28-11-22.34-13.86-30.75-36.47-33.88-44.88-5.38-14.47-4.29-21.85-7.11-34.55-1.49-6.69-2.65-10.18-4.23-14.17-4.41-11.13-10.53-19.16-15.08-24.24,38.38,21.33,69.69,37.43,91.55,48.35,24.72,12.35,53.65,26.16,92.85,49.21,10.61,6.24,19.29,11.58,25.16,15.24Z"/>
    <g>
      <path class="cls-11" d="m549.8,881.42c-1.8-9.05-12.79-60.01-59.64-86.12-8.44-4.71-54.09-30.15-89.53-7.07-37.56,24.46-29.83,81.42-29.02,86.92,4.24,28.79,19.83,47.97,26.98,55.77"/>
      <path class="cls-11" d="m234.68,874.29c-.63-30.62-1.25-61.24-1.88-91.87"/>
    </g>
    <rect class="cls-4" x="158.14" y="463.5" width="12.57" height="12.57" rx="6.29" ry="6.29"/>
  </g>
  <g id="Rabo_Cachorro" data-name="Rabo Cachorro">
    <path class="cls-4" d="m638.32,934.2c12.9-2.06,28.44-6.33,44.4-15,46.96-25.52,64.02-71.12,71.04-89.87,27.06-72.34-.94-145.6-21.93-185.51-2.52-4.82,3.89-9.33,7.55-5.31,48.51,53.22,71.3,123.02,58.41,189.31-2.44,12.56-21,100.51-100.07,139.64-17.56,8.69-35.33,16.45-57.71,15.48l-1.69-48.74Z"/>
  </g>
  <g id="Camisa">
    <path class="cls-2" d="m476.14,482.26c.24,6.76.55,13.56.93,20.4,4.36,77.86,17.54,150.38,36.13,217.07,38.91-58.77,72.46-133.09,78.53-220.67.48-6.96.78-13.84.91-20.62-14.34,4.85-35.43,10.2-61.31,10.62-22.67.37-41.59-3.17-55.2-6.8Z"/>
  </g>
  <g id="Boca">
    <path class="cls-2" d="m458.71,345.39c11.03,6.65,24.82,5.78,34.2-1.97,12.19-10.08,10.09-26.16,9.96-27.01-5.67,5.48-13.09,11.72-22.41,17.65-7.86,5-15.31,8.65-21.76,11.33Z"/>
  </g>
  <g id="Estetoscopio-2" data-name="Estetoscopio">
    <path class="cls-19" d="m598.05,703.65c-.69-2.85-16.61-71.86,17.48-100.94,4.65-3.97,16.19-13.81,32.28-13.57,14.97.22,25.55,9.04,29.53,12.35,22.02,18.35,26.43,61.39,13,108.94"/>
    <rect class="cls-4" x="593.93" y="684.93" width="25.84" height="25.84" rx="9.21" ry="9.21" transform="translate(-119.05 124.84) rotate(-10.7)"/>
    <rect class="cls-4" x="669.59" y="689.66" width="25.84" height="25.84" rx="9.21" ry="9.21" transform="translate(153.93 -122.07) rotate(11.51)"/>
    <rect class="cls-6" x="388.61" y="633.69" width="35.38" height="35.38" rx="17.69" ry="17.69" transform="translate(28.71 -17.05) rotate(2.49)"/>
    <path class="cls-16" d="m595.34,643.24c.6-6.66,2.42-15.49,7.47-24.58,2.3-4.14,11.76-20.01,29.89-26.42,2.88-1.02,8.66-3,16.37-2.64,6.45.3,11.16,2.09,13.33,2.93,16.26,6.33,24.99,21.17,27.21,25.06,8.29,14.52,8.46,28.59,8.13,34.94"/>
  </g>
  <g id="Layer_28" data-name="Layer 28">
    <rect class="cls-8" x="0" y="981.61" width="952.62" height="6.12" rx="3.06" ry="3.06"/>
  </g>
  <g id="Coleira">
    <path class="cls-18" d="m236.24,580.96c-2.26,10.04-13.27,53.68-55.97,82.93-37.58,25.75-76.18,24.23-87.66,23.36"/>
  </g>
  <g id="Pingente">
    <rect class="cls-9" x="170.44" y="681.85" width="23.31" height="23.31" rx="11.66" ry="11.66"/>
  </g>
</svg>