<?xml version="1.0" encoding="utf-8"?>
<!-- Generator: Adobe Illustrator 27.8.1, SVG Export Plug-In . SVG Version: 6.00 Build 0)  -->
<svg version="1.1" xmlns="http://www.w3.org/2000/svg" xmlns:xlink="http://www.w3.org/1999/xlink" x="0px" y="0px"
	 viewBox="0 0 1920 1080" style="enable-background:new 0 0 1920 1080;" xml:space="preserve">
<style type="text/css">
	.st0{display:none;}
	.st1{fill:#FAFF6B;}
	.st2{fill:#F9BFCB;}
	.st3{fill:#EFAFBE;}
	.st4{display:inline;}
	.st5{fill:none;stroke:#F90000;stroke-width:5;stroke-linecap:round;stroke-miterlimit:10;}
	.st6{fill:none;stroke:#F59CBA;stroke-width:2;stroke-linecap:round;stroke-miterlimit:10;}
	.st7{display:inline;fill:none;stroke:#F90000;stroke-width:5;stroke-linecap:round;stroke-miterlimit:10;}
	.st8{fill:none;stroke:#F59CBA;stroke-width:7;stroke-linecap:round;stroke-miterlimit:10;}
	.st9{fill:#9BD2DF;}
	.st10{fill:#76AEB7;}
	.st11{fill:#F9BFCB;stroke:#F59CBA;stroke-width:5;stroke-linecap:round;stroke-miterlimit:10;}
	.st12{fill:none;stroke:#F59CBA;stroke-width:3;stroke-linecap:round;stroke-miterlimit:10;}
	.st13{fill:none;stroke:#76AEB7;stroke-width:4;stroke-linecap:round;stroke-miterlimit:10;}
	.st14{fill:none;stroke:#F59CBA;stroke-width:5;stroke-linecap:round;stroke-linejoin:round;stroke-miterlimit:10;}
	.st15{fill:#F59CBA;}
	.st16{fill:none;stroke:#FAFF6B;stroke-width:7;stroke-linecap:round;stroke-miterlimit:10;}
	.st17{fill:#8BC3CC;}
	.st18{fill:none;stroke:#F8BECA;stroke-width:6;stroke-linecap:round;stroke-miterlimit:10;}
	.st19{fill:#F8BECA;}
	.st20{fill:none;stroke:#F59CBA;stroke-width:12;stroke-linecap:round;stroke-miterlimit:10;}
	.st21{fill:#333333;}
</style>
<g id="Layer_9">
</g>
<g id="Layer_1" class="st0">
	
		<image style="display:inline;overflow:visible;" width="1200" height="1499" xlink:href="../../../../../Downloads/UNICEF - Teens at Home.jpg"  transform="matrix(-0.5314 0 0 0.5314 1278.8668 59.7357)">
	</image>
</g>
<g id="Layer_20">
	<path class="st1" d="M871,297.4c0.8-12,5.6-66.5,46.9-96.4c47.6-34.5,109.1-11.2,130.1-3.3c92.6,35,134.5,147.8,152.9,226.9
		c12.2,52.4-21.4,104.7-73.4,113.7c-0.4,0.1-0.8,0.1-1.1,0.2c-83.6,14.1-150-19.2-173.9-32.7C925.3,436.3,898.1,366.9,871,297.4z"/>
	<path class="st1" d="M1083.2,199L1083.2,199c-16.9,0-30.6-13.7-30.6-30.6v0c0-16.9,13.7-30.6,30.6-30.6h0
		c16.9,0,30.6,13.7,30.6,30.6v0C1113.8,185.3,1100.1,199,1083.2,199z"/>
</g>
<g id="Layer_30">
</g>
<g id="Rosto_x5F_Fill">
	<g>
		<path class="st2" d="M987.1,460.9c-9.3,2.5-73.8,18.9-110.4-15.6c-52.9-49.7-17.1-176.7,50.9-201.6c29.7-10.9,78.5-7,101.7,24
			c9.3,12.4,12.1,26.1,13,35.2"/>
		<path class="st2" d="M930.8,467v115.3h108.8V368.9c3.5,0.2,9.7,0.2,16.4-2.9c11-5,20-16.6,20.1-30c0.1-16.2-13-33.6-29.2-33.1
			c-15.4,0.5-24.1,17-24.5,17.7"/>
	</g>
</g>
<g id="Shadow_Rosto">
	<path class="st3" d="M930.8,466.6c8.6,1.2,22,1.9,37.6-1.8c11.4-2.7,20.4-7,26.8-10.6c-6.8,11.2-17.6,26.3-34.4,40.5
		c-10.7,9.1-21.2,15.5-30,20.1C930.8,498.7,930.8,482.7,930.8,466.6z"/>
</g>
<g id="Rosto_Stroke" class="st0">
	<g class="st4">
		<path class="st5" d="M987.1,460.9c-9.3,2.5-73.8,18.9-110.4-15.6c-52.9-49.7-17.1-176.7,50.9-201.6c29.7-10.9,78.5-7,101.7,24
			c9.3,12.4,12.1,26.1,13,35.2"/>
		<path class="st5" d="M930.8,467v115.3h108.8V368.9c3.5,0.2,9.7,0.2,16.4-2.9c11-5,20-16.6,20.1-30c0.1-16.2-13-33.6-29.2-33.1
			c-15.4,0.5-24.1,17-24.5,17.7"/>
	</g>
	<g class="st4">
		<path class="st5" d="M987.1,460.9c-9.3,2.5-73.8,18.9-110.4-15.6c-52.9-49.7-17.1-176.7,50.9-201.6c29.7-10.9,78.5-7,101.7,24
			c9.3,12.4,12.1,26.1,13,35.2"/>
		<path class="st5" d="M930.8,467v115.3h108.8V368.9c3.5,0.2,9.7,0.2,16.4-2.9c11-5,20-16.6,20.1-30c0.1-16.2-13-33.6-29.2-33.1
			c-15.4,0.5-24.1,17-24.5,17.7"/>
	</g>
	<g class="st4">
		<path class="st6" d="M987.1,460.9c-9.3,2.5-73.8,18.9-110.4-15.6c-52.9-49.7-17.1-176.7,50.9-201.6c29.7-10.9,78.5-7,101.7,24
			c9.3,12.4,12.1,26.1,13,35.2"/>
		<path class="st6" d="M930.8,467v115.3h108.8V368.9c3.5,0.2,9.7,0.2,16.4-2.9c11-5,20-16.6,20.1-30c0.1-16.2-13-33.6-29.2-33.1
			c-15.4,0.5-24.1,17-24.5,17.7"/>
	</g>
</g>
<g id="Layer_26">
	<path class="st1" d="M920,242.9c10.4,12.2,30.7,32.6,62.7,46.6c24.2,10.6,46,13.6,60.5,14.4c3.1-9.3,6.3-18.6,9.4-27.9l-47.4-40
		l-71.2-3.2L920,242.9z"/>
</g>
<g id="Cabelo" class="st0">
	<path class="st7" d="M1039.5,541.3c2,4.2,23.5,48.2,71.2,56.3c0.6,0.1,1.3,0.2,1.9,0.3c57.6,8.5,106.5-42.8,96.3-100.1
		c-29-162.7-97-282.3-184.2-300.8c-17.1-3.6-82.1-17.4-121.3,21.8c-23.8,23.8-27.3,56.4-27.8,71.8"/>
	<path class="st7" d="M1102.1,209.2L1102.1,209.2c-23,0-41.6-18.6-41.6-41.6v0c0-23,18.6-41.6,41.6-41.6h0c23,0,41.6,18.6,41.6,41.6
		v0C1143.7,190.6,1125.1,209.2,1102.1,209.2z"/>
</g>
<g id="Layer_4">
</g>
<g id="Oculos">
	<g>
		<circle class="st8" cx="857.9" cy="308" r="39.5"/>
		<circle class="st8" cx="956.6" cy="308" r="39.5"/>
		<line class="st8" x1="1043.2" y1="300.1" x2="995.9" y2="304.6"/>
		<path class="st8" d="M897.3,304.6c1.3-0.9,4.7-2.9,9.6-3c5.2-0.1,8.9,2.1,10.2,3"/>
	</g>
</g>
<g id="Paleta">
</g>
<g id="Layer_10">
	<path class="st9" d="M1278.7,795c-0.9,82.3-1.8,164.7-2.7,247c-182.8,0.8-365.6,1.6-548.4,2.4c33.5-213.5,8.5-283.5-26-302.8
		c-5.1-2.8-12.2-5.6-14.8-12.8c-14.7-40.2,128.8-160.9,288.5-176.9c34.1-3.4,98.2-9,168.7,24.9c1.3,0.6,2.6,1.3,3.9,1.9
		C1229.3,619.5,1279.7,703.9,1278.7,795z"/>
</g>
<g id="Layer_16">
	<path class="st10" d="M875.2,497.3c0,0.1,0,0.1-0.1,0.2c-3.2,5.8-24,14.2-24,14.2c-1.7,0.7-3.4,1.4-5.2,2.1
		c-32.7,12.7-76,19.6-114.5,22.2c-21.6,1.5-41.7,1.6-57.6,0.7c-0.2,0-0.3,0-0.5,0c-20.2-1.2-33.4-4.2-33.5-8.4
		c-0.2-4.8,16.9-11.6,81.1-21.4l120.1-16.5c17-0.3,33.3,0.6,34.3,5.3c0,0,0,0.1,0,0.1c0,0,0,0,0,0L875.2,497.3z"/>
</g>
<g id="Mao_Fill">
	<g>
		<path class="st11" d="M1041.4,316.3c1.1-0.3,7.7-2.1,14.2,1.9c7.6,4.7,8.2,13.5,8.2,14.2"/>
		<path class="st11" d="M1051.2,317.5c0.7,1.9,1.7,5.4,1.2,9.8c-0.7,6.4-4,10.6-5.4,12.2"/>
	</g>
</g>
<g id="Layer_31">
</g>
<g id="Mao_Stroke">
</g>
<g id="Mao">
	<g>
		<path class="st2" d="M848.8,532.5l-114.7,22.4l-2-14.9c-0.8-6.1-2.2-12.1-4.4-17.8c-6.9-18.7-23.9-52.9-61.1-73.1
			c-18.5-10.1-36.2-13.5-48.8-14.7c-6.4-0.6-10.5-6.3-9.6-11.5c0.8-4.1,4.7-7.5,9.6-7.7c10.4,0.6,22.3,2,35.5,4.8
			c13.1,2.8,24.6,6.3,34.4,9.9c2.8,2.5,5.7,5,8.5,7.5c2.2-6.4,6.2-14.7,13.7-22.3c7.1-7.3,15-11.4,21.3-13.8l-73-61.5
			c-4-4.8-4.4-11.3-1.3-15.7c3.8-5.5,12.7-7,19.1-2.1c24.2,20.6,48.3,41.2,72.5,61.7c-1.8-16.8-1.4-36.6,8.9-42.2
			c3.2-1.7,8.7-2.8,12.7-0.4c1.6,0.9,2.7,2.3,3.4,3.9c-5.3,2.3-8.7,7.6-8.3,13.3c0.3,6,4.8,11.2,10.8,12.5c0.3,1.9,0.7,3.9,1.2,5.9
			c4.1,15.6,12.3,15.4,29.3,38.4c15,20.2,22.4,38.9,26.7,49.9c4.6,11.9,10,28.6,13.1,49.3L848.8,532.5z"/>
		<path class="st2" d="M731.2,401.3c-6.3,2.4-14.1,6.5-21.3,13.8l-63.3-53.4c0,0,0,0,0,0l-5.4-4.5c-4.7-4.6-5.5-11.5-2.6-16
			c3.7-5.6,13.1-7.1,19.6-1.3L731.2,401.3z"/>
		<path class="st2" d="M709.9,415.1c-7.5,7.6-11.5,15.9-13.7,22.3c-2.8-2.5-5.7-5-8.5-7.5c-18.7-16.5-37.3-32.9-56-49.4
			c-2.7-2.4-4.4-5.8-4.4-9.4c0-3.4,1.4-6.6,3.9-8.9c4.1-3.7,10.5-4,15.3-0.6c0,0,0,0,0,0L709.9,415.1z"/>
		<path class="st12" d="M748.4,424.1c2.5,3.2,7.5,8.9,15.9,12.9c10.7,5.1,20.5,4.4,24.5,3.9"/>
		<path class="st6" d="M848.8,532.5l-114.7,22.4l-2-14.9c-0.8-6.1-2.2-12.1-4.4-17.8c-6.9-18.7-23.9-52.9-61.1-73.1
			c-18.5-10.1-36.2-13.5-48.8-14.7c-6.4-0.6-10.5-6.3-9.6-11.5c0.8-4.1,4.7-7.5,9.6-7.7c10.4,0.6,22.3,2,35.5,4.8
			c13.1,2.8,24.6,6.3,34.4,9.9c2.8,2.5,5.7,5,8.5,7.5c2.2-6.4,6.2-14.7,13.7-22.3c7.1-7.3,15-11.4,21.3-13.8l-73-61.5
			c-4-4.8-4.4-11.3-1.3-15.7c3.8-5.5,12.7-7,19.1-2.1c24.2,20.6,48.3,41.2,72.5,61.7c-1.8-16.8-1.4-36.6,8.9-42.2
			c3.2-1.7,8.7-2.8,12.7-0.4c1.6,0.9,2.7,2.3,3.4,3.9c-5.3,2.3-8.7,7.6-8.3,13.3c0.3,6,4.8,11.2,10.8,12.5c0.3,1.9,0.7,3.9,1.2,5.9
			c4.1,15.6,12.3,15.4,29.3,38.4c15,20.2,22.4,38.9,26.7,49.9c4.6,11.9,10,28.6,13.1,49.3L848.8,532.5z"/>
		<path class="st6" d="M731.2,401.3c-6.3,2.4-14.1,6.5-21.3,13.8l-63.3-53.4c0,0,0,0,0,0l-5.4-4.5c-4.7-4.6-5.5-11.5-2.6-16
			c3.7-5.6,13.1-7.1,19.6-1.3L731.2,401.3z"/>
		<path class="st6" d="M709.9,415.1c-7.5,7.6-11.5,15.9-13.7,22.3c-2.8-2.5-5.7-5-8.5-7.5c-18.7-16.5-37.3-32.9-56-49.4
			c-2.7-2.4-4.4-5.8-4.4-9.4c0-3.4,1.4-6.6,3.9-8.9c4.1-3.7,10.5-4,15.3-0.6c0,0,0,0,0,0L709.9,415.1z"/>
		<path class="st6" d="M773.4,345.1c2.5,5.6,0.9,15,2.5,25.8"/>
		<path class="st12" d="M743.3,398.3c-4.8,0.7-20.7,3.6-33.9,17.5c-12,12.7-14.6,27-15.3,32"/>
	</g>
</g>
<g id="Layer_12">
	<path class="st9" d="M673.5,536.6L584,653.1l109.2,203.3c27.5-28.6,57.5-64.6,85.5-108.9c60.5-95.6,85.6-188,96.9-251.7
		L673.5,536.6z"/>
</g>
<g id="Layer_21">
	<path class="st13" d="M870.9,512.3c-4.9,31.5-14.8,72.6-36.2,116.8c-10.9,22.6-22.8,41.9-34.2,58.1"/>
</g>
<g id="Layer_17">
</g>
<g id="Layer_18">
	<path class="st14" d="M911.3,380.4c-7.4,0-14.8,0-22.2,0c-3.7,0-6.4-3.5-5.4-7.1l18-63.5c2.3-6.8,3-8,3-8"/>
</g>
<g id="Olho">
	<path class="st15" d="M871,334.1L871,334.1c-3,0-5.5-2.5-5.5-5.5v0c0-3,2.5-5.5,5.5-5.5l0,0c3,0,5.5,2.5,5.5,5.5v0
		C876.4,331.6,874,334.1,871,334.1z"/>
	<path class="st15" d="M941.4,334.1L941.4,334.1c-3,0-5.5-2.5-5.5-5.5v0c0-3,2.5-5.5,5.5-5.5l0,0c3,0,5.5,2.5,5.5,5.5v0
		C946.8,331.6,944.4,334.1,941.4,334.1z"/>
</g>
<g id="Layer_29">
	<path class="st16" d="M1042.4,543.5c1,0.6,2.1,1.2,3.1,1.9c2.7,1.7,5.4,3.6,8,5.6l0,0c1.7,1.4,3.4,2.8,5.2,4.3
		c24.1,21.5,31.7,49,33.8,68.7c1.4,13.4,0.2,23.2,0,25.1c0,0,0,0,0,0"/>
	<path class="st16" d="M856.6,702.8c-0.2-2.8-0.3-5.9-0.4-9.4c-0.1-7,0-15.2,0.9-24.4c1.7-18.6,3.9-42.9,18.3-69.3
		c3.6-6.6,7.6-12.6,11.6-17.8c4.4-5.8,8.8-10.7,13-14.8c2.5-2.5,4.9-4.7,7.1-6.6c5.8-5.1,10.5-8.2,12.5-9.6c1.7-1.2,4-2.6,6.6-4.2"
		/>
</g>
<g id="Gola_Jaleco">
	<path class="st17" d="M1093.8,552.6c1.6,1,4.8,2.1,6.1,5.2c4,10,11.6,35.6-2.7,59.4c-10.1,16.8-25.7,23.7-31.6,26
		c4.3,10,5.8,18.3,6.4,23.6c8.1,70.8-81.4,128.9-88.8,133.6c-8.9,5.6-16.4,9.5-20.8,11.6c-7.7-5.8-64.2-49.9-58.9-110
		c0.8-8.5,2.9-18.9,8.1-30.4c-5.2-6.7-10.7-15-15.2-25.2c-13.5-30.5-10.8-59.7-7.7-75.9c0.4-2.1,1.6-4,3.3-5.2c0,0,0.9-0.6,1.9-1
		c35.2-12.5,87.9-14.2,87.9-14.2C1033.9,548.5,1070.7,537.7,1093.8,552.6z"/>
</g>
<g id="Layer_32">
	<path class="st3" d="M749.3,443.2c8.8,10.8,21.1,29.5,25.1,54.9c1,6.4,1.4,12.4,1.3,17.8c-15.1,3.1-30.3,6.3-45.4,9.4
		C736.6,498,743,470.6,749.3,443.2z"/>
	<path class="st3" d="M757.7,446.7"/>
</g>
<g id="Layer_34">
	<line class="st13" x1="1147.8" y1="812" x2="1104.9" y2="1046.5"/>
</g>
<g id="Cachorro">
	<path id="Base" class="st2" d="M833.5,970.4c-32.5-1.2-71.6-6.6-113.7-21.3c-11.6-4.1-22.5-8.5-32.7-13.1l-1.9-82.2
		c1.5,64.2,2.9,128.5,4.4,192.7c-59,0-118.1,0-177.1,0c2.5-11.1,6.8-19.1,10.8-24.6c27.9-38.8,89.3-30.5,93.3-29.9
		c-7.8-38.4-17.1-78.7-28.2-120.6c-12.4-46.9-25.8-91-39.6-132.1l-36.3-216.6c12.5-10.5,37.9-28.7,74.6-35.6c20.4-3.8,38-3,50.8-1.3
		c37.2-14.7,74.4-29.5,111.5-44.2c12.5,23.3,14.2,42.9,13.9,54.8c-1.4,52.8-45.4,102.7-110.9,126.7c37.4,24.9,95.3,61.6,168.9,101.6
		c115,62.5,162.4,74.9,208.5,126.1c31.5,34.9,67.5,93.4,78.2,194.6c-0.6,0.4-1.2,0.8-1.9,1.2c-0.5,0-1,0.1-1.4,0.1
		c-116.1,0-232.2,0-348.3,0c-2.1-17.7,3.4-28.8,6.2-33.4c13.8-23.1,48.7-33.5,85.7-22.4c-6.1-6.8-40.7-46.9-31.1-95
		c1.7-8.6,5.6-28,21.9-40.9c26.7-21.2,65.4-8.4,76.6-4.7c56.8,18.7,79.4,77.7,83.5,89.2L833.5,970.4z"/>
	<g>
		<path class="st15" d="M638.3,485.1c5.8,5.8,23.9,25.3,22.1,50c-2,28.6-30.2,56.5-71.2,63.9c-12.3,2.2-24.9-2.6-32.5-12.6
			c-3.6-4.7-7.2-9.7-10.8-14.8c-13.1-18.8-23.5-36.9-31.7-53.5c19.2-12.9,36.7-20.3,49.2-24.6c7.3-2.5,18.2-6.2,33.2-8.2
			C613.7,482.9,628.2,483.8,638.3,485.1z"/>
		<path class="st15" d="M693.9,462.2c6.4-3.9,16.1-9.4,28.6-14.7c15.5-6.6,23.2-10,26.2-7c5,4.9-1.5,28.6-18.7,34.8
			C718,479.5,703.2,474.5,693.9,462.2z"/>
		<path class="st15" d="M709.9,506.9h-3.5c-1.5,0-2.7-1.2-2.7-2.7v-3.5c0-1.5,1.2-2.7,2.7-2.7h3.5c1.5,0,2.7,1.2,2.7,2.7v3.5
			C712.6,505.7,711.4,506.9,709.9,506.9z"/>
		<path class="st15" d="M723.8,511.4h-3.5c-1.5,0-2.7-1.2-2.7-2.7v-3.5c0-1.5,1.2-2.7,2.7-2.7h3.5c1.5,0,2.7,1.2,2.7,2.7v3.5
			C726.5,510.1,725.3,511.4,723.8,511.4z"/>
		<path class="st15" d="M705.4,523.2h-3.5c-1.5,0-2.7-1.2-2.7-2.7V517c0-1.5,1.2-2.7,2.7-2.7h3.5c1.5,0,2.7,1.2,2.7,2.7v3.5
			C708.1,522,706.9,523.2,705.4,523.2z"/>
	</g>
	<path class="st15" d="M514.4,518.2c9.3,10.1,16.7,21.9,21.7,34.8c33.9,86.7,35.8,160.3,1.3,187.1c-6.1,4.7-14.2,8.7-25.5,10.6
		c-19.8,1.3-31.2-4-38-9.3c-30-23.4-26.6-91.5,9.9-173.9c7.9-17.8,18.2-34.3,30.5-49.4v0C514.3,518.1,514.4,518.2,514.4,518.2z"/>
	<path class="st15" d="M984.1,811.3c-13.8,2.5-23.7,4.9-30.7,7c-5,1.5-10,3.1-16.5,2.2c-3.1-0.4-3.9-1.1-11.5-2.6
		c-5.2-1.1-7.9-1.5-10.9-1.8c-4.4-0.5-9-0.7-14.1,1.2c-4,1.5-5.4,3.3-8.8,5.3c-3.8,2.3-9.6,4.7-18.5,4.8c-8.4-0.2-23.4-1.8-38.3-11
		c-22.3-13.9-30.8-36.5-33.9-44.9c-5.4-14.5-4.3-21.8-7.1-34.6c-1.5-6.7-2.7-10.2-4.2-14.2c-4.4-11.1-10.5-19.2-15.1-24.2
		c38.4,21.3,69.7,37.4,91.6,48.4c24.7,12.3,53.6,26.2,92.8,49.2C969.6,802.3,978.2,807.6,984.1,811.3z"/>
	<g>
		<path class="st8" d="M999.7,941.2c-1.8-9.1-12.8-60-59.6-86.1c-8.4-4.7-54.1-30.1-89.5-7.1c-37.6,24.5-29.8,81.4-29,86.9
			c4.2,28.8,19.8,48,27,55.8"/>
		<path class="st8" d="M684.5,934c-0.6-30.6-1.3-61.2-1.9-91.9"/>
	</g>
	<path class="st2" d="M614.3,535.8L614.3,535.8c-3.5,0-6.3-2.8-6.3-6.3v0c0-3.5,2.8-6.3,6.3-6.3l0,0c3.5,0,6.3,2.8,6.3,6.3v0
		C620.6,533,617.8,535.8,614.3,535.8z"/>
</g>
<g id="Rabo_Cachorro">
	<path class="st2" d="M1088.2,993.9c12.9-2.1,28.4-6.3,44.4-15c47-25.5,64-71.1,71-89.9c27.1-72.3-0.9-145.6-21.9-185.5
		c-2.5-4.8,3.9-9.3,7.6-5.3c48.5,53.2,71.3,123,58.4,189.3c-2.4,12.6-21,100.5-100.1,139.6c-17.6,8.7-35.3,16.5-57.7,15.5
		L1088.2,993.9z"/>
</g>
<g id="Camisa">
	<path class="st15" d="M926,542c0.2,6.8,0.6,13.6,0.9,20.4c4.4,77.9,17.5,150.4,36.1,217.1c38.9-58.8,72.5-133.1,78.5-220.7
		c0.5-7,0.8-13.8,0.9-20.6c-14.3,4.9-35.4,10.2-61.3,10.6C958.5,549.2,939.6,545.6,926,542z"/>
</g>
<g id="Boca">
	<path class="st15" d="M908.6,405.1c11,6.7,24.8,5.8,34.2-2c12.2-10.1,10.1-26.2,10-27c-5.7,5.5-13.1,11.7-22.4,17.6
		C922.5,398.8,915,402.4,908.6,405.1z"/>
</g>
<g id="Estetoscopio">
	<path class="st18" d="M1047.9,763.4c-0.7-2.9-16.6-71.9,17.5-100.9c4.7-4,16.2-13.8,32.3-13.6c15,0.2,25.5,9,29.5,12.4
		c22,18.3,26.4,61.4,13,108.9"/>
	<path class="st2" d="M1062.8,769.6l-7.3,1.4c-5,0.9-9.8-2.3-10.8-7.3l-1.4-7.3c-0.9-5,2.3-9.8,7.3-10.8l7.3-1.4
		c5-0.9,9.8,2.3,10.8,7.3l1.4,7.3C1071,763.8,1067.8,768.7,1062.8,769.6z"/>
	<path class="st2" d="M1133.4,775.7l-7.3-1.5c-5-1-8.2-5.9-7.2-10.9l1.5-7.3c1-5,5.9-8.2,10.9-7.2l7.3,1.5c5,1,8.2,5.9,7.2,10.9
		l-1.5,7.3C1143.3,773.5,1138.4,776.7,1133.4,775.7z"/>
	<path class="st19" d="M855.4,728.8L855.4,728.8c-9.8-0.4-17.3-8.7-16.9-18.4v0c0.4-9.8,8.7-17.3,18.4-16.9h0
		c9.8,0.4,17.3,8.7,16.9,18.4l0,0C873.4,721.6,865.2,729.2,855.4,728.8z"/>
</g>
<g id="Layer_27">
	<path class="st20" d="M1045.2,703c0.6-6.7,2.4-15.5,7.5-24.6c2.3-4.1,11.8-20,29.9-26.4c2.9-1,8.7-3,16.4-2.6
		c6.4,0.3,11.2,2.1,13.3,2.9c16.3,6.3,25,21.2,27.2,25.1c8.3,14.5,8.5,28.6,8.1,34.9"/>
</g>
<g id="Layer_28">
	<rect x="349.5" y="1042.8" class="st21" width="1172.8" height="7.5"/>
</g>
</svg>
