<svg xmlns="http://www.w3.org/2000/svg" xmlns:xlink="http://www.w3.org/1999/xlink" width="1080" zoomAndPan="magnify" viewBox="0 0 810 809.999993" height="1080" preserveAspectRatio="xMidYMid meet" version="1.0"><defs><clipPath id="04733ff40f"><path d="M 118 107 L 689 107 L 689 698 L 118 698 Z M 118 107 " clip-rule="nonzero"/></clipPath><clipPath id="632f4854de"><path d="M 58.4375 186.621094 L 642.667969 71.320312 L 751.582031 623.175781 L 167.351562 738.476562 Z M 58.4375 186.621094 " clip-rule="nonzero"/></clipPath><clipPath id="0ef409cf14"><path d="M 58.4375 186.621094 L 642.667969 71.320312 L 751.582031 623.175781 L 167.351562 738.476562 Z M 58.4375 186.621094 " clip-rule="nonzero"/></clipPath><clipPath id="1208512948"><path d="M 58.4375 186.621094 L 642.667969 71.320312 L 751.582031 623.175781 L 167.351562 738.476562 Z M 58.4375 186.621094 " clip-rule="nonzero"/></clipPath></defs><g clip-path="url(#04733ff40f)"><g clip-path="url(#632f4854de)"><g clip-path="url(#0ef409cf14)"><g clip-path="url(#1208512948)"><path fill="#000000" d="M 453.84375 109.148438 C 452.65625 109.398438 451.441406 109.699219 450.246094 110.03125 C 403.464844 127.945312 386.941406 184.386719 391.992188 230.289062 C 394.4375 272.359375 422.882812 321.4375 469.6875 321.738281 C 476.457031 321.691406 483.128906 319.785156 489.164062 316.796875 C 539.757812 287.945312 551.347656 219.023438 533.027344 167.441406 C 523.980469 133.578125 490.738281 101.375 453.84375 109.144531 Z M 248.960938 151.863281 C 218.992188 158.546875 201.5625 193.703125 202.453125 223.339844 C 203.617188 282.179688 243.429688 347.714844 306.234375 354 C 312.023438 354.113281 317.789062 353.105469 323.222656 351.132812 C 361.957031 336.554688 370.066406 288.320312 361.238281 252.417969 C 350.601562 204.859375 314.855469 154.492188 262.542969 150.855469 C 257.765625 150.546875 253.242188 150.914062 248.960938 151.867188 Z M 617.355469 246.921875 C 565.878906 260.320312 540.417969 319.320312 544.902344 368.839844 C 544.914062 405.1875 572.8125 448.304688 613.304688 443.214844 C 668.859375 431.539062 695.113281 364.554688 686.589844 313.0625 C 683.433594 278.515625 655.375 241.359375 617.355469 246.921875 Z M 163.683594 348.4375 C 141.484375 352.621094 122.304688 370.191406 119.507812 394.140625 C 112.074219 458.191406 165.929688 526.828125 232.257812 526.890625 C 259.796875 526.191406 279.167969 501.121094 280.917969 475.214844 C 284.527344 419.828125 243.71875 364.398438 190.347656 350.117188 C 181.542969 347.234375 172.371094 346.808594 163.683594 348.445312 Z M 418.53125 410.363281 C 375.101562 419.03125 335.324219 449.777344 313.664062 488.136719 C 290.824219 532.371094 274.714844 581.777344 274.5 631.957031 C 269.523438 669.027344 304.226562 703.710938 341.421875 696.621094 C 386.359375 689.042969 418.714844 650.789062 462.703125 639.738281 C 499.273438 626.550781 536.898438 639.492188 573.328125 645.632812 C 604.625 652.273438 643.574219 639.675781 652.179688 605.722656 C 657.527344 571.789062 633.804688 541.414062 614.128906 516.097656 C 576.300781 476.171875 535.960938 434.324219 483.078125 415.175781 C 461.816406 407.175781 439.742188 406.132812 418.53125 410.363281 Z M 418.53125 410.363281 " fill-opacity="1" fill-rule="nonzero"/></g></g></g></g></svg>