<svg xmlns="http://www.w3.org/2000/svg" xmlns:xlink="http://www.w3.org/1999/xlink" width="1080" zoomAndPan="magnify" viewBox="0 0 810 809.999993" height="1080" preserveAspectRatio="xMidYMid meet" version="1.0"><defs><clipPath id="0856e4b1cf"><path d="M 162 111.292969 L 699 111.292969 L 699 648.292969 L 162 648.292969 Z M 162 111.292969 " clip-rule="nonzero"/></clipPath></defs><g clip-path="url(#0856e4b1cf)"><path fill="#000000" d="M 430.5 594.589844 C 311.929688 594.589844 215.703125 498.363281 215.703125 379.792969 C 215.703125 261.222656 311.929688 164.996094 430.5 164.996094 C 549.207031 164.996094 645.296875 261.222656 645.296875 379.792969 C 645.296875 498.363281 549.207031 594.589844 430.5 594.589844 Z M 430.5 111.292969 C 282.289062 111.292969 162 231.4375 162 379.792969 C 162 528.148438 282.289062 648.292969 430.5 648.292969 C 578.855469 648.292969 699 528.148438 699 379.792969 C 699 231.4375 578.855469 111.292969 430.5 111.292969 " fill-opacity="1" fill-rule="nonzero"/></g><path fill="#000000" d="M 517.5625 436.820312 L 479.617188 474.734375 L 403.71875 398.835938 L 403.71875 226.605469 L 457.421875 226.605469 L 457.421875 376.640625 L 517.5625 436.820312 " fill-opacity="1" fill-rule="nonzero"/></svg>